<svg width="128" height="24" viewBox="0 0 128 24" fill="none" xmlns="http://www.w3.org/2000/svg">
<g clip-path="url(#clip0)">
<path d="M1.33068 13.407C1.7343 13.407 2.0615 13.0786 2.0615 12.6736C2.0615 12.2685 1.7343 11.9402 1.33068 11.9402C0.927055 11.9402 0.599854 12.2685 0.599854 12.6736C0.599854 13.0786 0.927055 13.407 1.33068 13.407Z" fill="white"/>
<path d="M5.20568 22.7984C5.6093 22.7984 5.9365 22.4701 5.9365 22.0651C5.9365 21.66 5.6093 21.3317 5.20568 21.3317C4.80206 21.3317 4.47485 21.66 4.47485 22.0651C4.47485 22.4701 4.80206 22.7984 5.20568 22.7984Z" fill="white"/>
<path d="M10.6908 9.51659C11.0944 9.51659 11.4216 9.18824 11.4216 8.7832C11.4216 8.37816 11.0944 8.0498 10.6908 8.0498C10.2872 8.0498 9.95996 8.37816 9.95996 8.7832C9.95996 9.18824 10.2872 9.51659 10.6908 9.51659Z" fill="white"/>
<path d="M14.8454 17.4968C14.4729 17.3416 14.0451 17.519 13.8905 17.8944C13.7358 18.2683 13.9126 18.6975 14.2866 18.8528C14.6592 19.008 15.0869 18.8306 15.2416 18.4552C15.3963 18.0813 15.2179 17.6521 14.8454 17.4968Z" fill="white"/>
<path d="M14.566 13.407C14.9697 13.407 15.2969 13.0786 15.2969 12.6736C15.2969 12.2685 14.9697 11.9402 14.566 11.9402C14.1624 11.9402 13.8352 12.2685 13.8352 12.6736C13.8352 13.0786 14.1624 13.407 14.566 13.407Z" fill="white"/>
<path d="M10.6893 22.7984C11.0929 22.7984 11.4201 22.4701 11.4201 22.0651C11.4201 21.66 11.0929 21.3317 10.6893 21.3317C10.2857 21.3317 9.9585 21.66 9.9585 22.0651C9.9585 22.4701 10.2857 22.7984 10.6893 22.7984Z" fill="white"/>
<path d="M13.3174 13.2089C13.0774 12.6276 12.5376 12.2648 11.9094 12.2648H11.106V11.4586C11.106 10.8281 10.7461 10.288 10.1652 10.0456C9.5859 9.80486 8.94979 9.93158 8.50466 10.3767L7.93642 10.9469L7.36817 10.3767C6.92463 9.93158 6.28851 9.80486 5.70764 10.0456C5.12835 10.2864 4.76688 10.8281 4.76688 11.4586V12.2648H3.96345C3.33522 12.2648 2.79697 12.626 2.55546 13.2089C2.31554 13.7902 2.44182 14.4286 2.88536 14.8752L3.45361 15.4455L2.88536 16.0157C2.44182 16.4608 2.31554 17.0992 2.55546 17.6821C2.79539 18.2634 3.33522 18.6262 3.96345 18.6262H4.76688V19.4308C4.76688 20.0613 5.12677 20.6014 5.70764 20.8438C5.90179 20.9245 6.10225 20.9641 6.29956 20.9641C6.69102 20.9641 7.07143 20.8089 7.3666 20.5127L7.93484 19.9425L8.50308 20.5127C8.79826 20.8089 9.17866 20.9641 9.57012 20.9641C9.76743 20.9641 9.96789 20.9245 10.162 20.8438C10.7413 20.603 11.1028 20.0613 11.1028 19.4308V18.6246H11.9062C12.5345 18.6246 13.0727 18.2634 13.3142 17.6805C13.5541 17.0992 13.4279 16.4608 12.9843 16.0141L12.4161 15.4439L12.9843 14.8737C13.431 14.4301 13.5573 13.7918 13.3174 13.2089ZM9.15656 11.0309C9.42175 10.7648 9.72797 10.863 9.81478 10.8994C9.9016 10.9358 10.1873 11.0832 10.1873 11.4586V12.2648H9.50067C9.33967 12.2648 9.18813 12.2015 9.07291 12.0874L8.58832 11.5995L9.15656 11.0309ZM10.634 14.9576L11.1202 15.4455L10.6356 15.9318C10.3483 16.2201 10.1889 16.605 10.1889 17.0121V17.7011H9.50225C9.095 17.7011 8.71302 17.8595 8.42574 18.1494L7.94115 18.6372L7.45499 18.1494C7.16771 17.8611 6.78415 17.7011 6.37848 17.7011H5.69186V17.0121C5.69186 16.6034 5.53401 16.2201 5.24515 15.9318L4.75899 15.4439L5.24515 14.956C5.53243 14.6677 5.69186 14.2828 5.69186 13.8757V13.1867H6.37848C6.78572 13.1867 7.16771 13.0283 7.45499 12.7384L7.94115 12.2506L8.42574 12.7384C8.71302 13.0267 9.09658 13.1867 9.50225 13.1867H10.1889V13.8757C10.1873 14.2844 10.3467 14.6693 10.634 14.9576ZM5.69028 11.4601C5.69028 11.0847 5.97598 10.9358 6.06279 10.901C6.10383 10.8836 6.1938 10.8535 6.3043 10.8535C6.42899 10.8535 6.58053 10.8915 6.72101 11.0325L7.28925 11.6027L6.80467 12.0906C6.69102 12.2046 6.53949 12.268 6.3769 12.268H5.69028V11.4601ZM3.54042 14.2226C3.27524 13.9565 3.3731 13.6492 3.40941 13.5621C3.44571 13.475 3.59251 13.1883 3.9666 13.1883H4.77004V13.8773C4.77004 14.0389 4.7069 14.191 4.59325 14.3066L4.10709 14.7945L3.54042 14.2226ZM3.9666 17.7011C3.59251 17.7011 3.44413 17.4144 3.40941 17.3273C3.3731 17.2402 3.27524 16.9329 3.54042 16.6668L4.10866 16.0965L4.59483 16.5844C4.70848 16.6984 4.77162 16.8505 4.77162 17.0121V17.7011H3.9666ZM6.72101 19.8585C6.45583 20.1246 6.15119 20.0264 6.06279 19.99C5.97598 19.9536 5.69028 19.8062 5.69028 19.4308V18.6246H6.3769C6.53791 18.6246 6.68944 18.6879 6.80467 18.802L7.29083 19.2899L6.72101 19.8585ZM10.1873 19.4308C10.1873 19.8062 9.9016 19.9551 9.81478 19.99C9.72797 20.0264 9.42175 20.1246 9.15656 19.8585L8.58832 19.2883L9.07291 18.802C9.18656 18.6879 9.33809 18.6246 9.50067 18.6246H10.1873V19.4308ZM12.3372 16.6668C12.6023 16.9329 12.5045 17.2402 12.4682 17.3273C12.4319 17.4144 12.2851 17.7011 11.911 17.7011H11.1075V17.0121C11.1075 16.8505 11.1707 16.6984 11.2843 16.5828L11.7705 16.0949L12.3372 16.6668ZM12.3372 14.2226L11.7689 14.7929L11.2827 14.305C11.1691 14.191 11.106 14.0389 11.106 13.8757V13.1867H11.9094C12.2835 13.1867 12.4319 13.4734 12.4666 13.5605C12.5045 13.6492 12.6023 13.9565 12.3372 14.2226Z" fill="white"/>
<path d="M1.04961 17.4968C0.677097 17.6521 0.498732 18.0813 0.65342 18.4551C0.808109 18.829 1.23587 19.008 1.60839 18.8527C1.9809 18.6975 2.15927 18.2682 2.00458 17.8944C1.84989 17.5206 1.42213 17.3432 1.04961 17.4968Z" fill="white"/>
<path d="M5.4851 9.46118C5.85761 9.30595 6.03598 8.87669 5.88129 8.50286C5.7266 8.12904 5.29884 7.95004 4.92632 8.10528C4.55381 8.26051 4.37544 8.68977 4.53013 9.0636C4.68482 9.43742 5.11258 9.61641 5.4851 9.46118Z" fill="white"/>
<path d="M25.0294 17.275C25.0294 18.5327 23.9561 19.3833 22.2498 19.3833H18.5215V11.674H22.114C23.7178 11.674 24.668 12.4454 24.668 13.6809C24.668 14.4634 24.2276 15.154 23.5268 15.3932C24.5559 15.5975 25.0294 16.38 25.0294 17.275ZM19.879 14.9275H21.9246C22.8733 14.9275 23.3926 14.5077 23.3926 13.8504C23.3926 13.2389 22.8954 12.8746 21.9578 12.8746H19.879V14.9275ZM22.1945 18.1826C23.2 18.1826 23.6972 17.6947 23.6972 17.1166C23.6972 16.4703 23.1321 16.1535 22.2514 16.1535H19.879V18.1826H22.1945Z" fill="white"/>
<path d="M27.3909 14.701C27.8771 14.202 28.5211 13.9185 29.334 13.9185V15.154C28.4864 15.1872 27.8534 15.4834 27.3909 16.0489V19.3833H26.0808V14.0214H27.3909V14.701Z" fill="white"/>
<path d="M35.0984 17.218H35.0874H30.9976C31.1555 17.8865 31.6527 18.3965 32.5571 18.3965C33.0764 18.3965 33.449 18.227 33.6415 17.8975H35.0306C34.7259 18.8844 33.7426 19.5069 32.5224 19.5069C30.8161 19.5069 29.6875 18.2935 29.6875 16.7064C29.6875 15.1081 30.8177 13.8948 32.5224 13.8948C34.003 13.8948 35.1205 15.0052 35.1316 16.6161C35.1316 16.8093 35.1316 17.0137 35.0984 17.218ZM30.9866 16.2438H33.8104C33.7094 15.4851 33.2343 15.0083 32.4545 15.0083C31.6195 15.0083 31.1334 15.5516 30.9866 16.2438Z" fill="white"/>
<path d="M41.3744 19.3832H40.0753V19.0094C39.6349 19.3262 39.0809 19.5084 38.4369 19.5084C36.9453 19.5084 35.7488 18.2617 35.7488 16.7078C35.7488 15.1428 36.9468 13.8962 38.4369 13.8962C39.0809 13.8962 39.6349 14.0784 40.0753 14.3952V14.0214H41.3744V19.3832ZM40.0753 17.6155V15.7891C39.7028 15.2331 39.1835 15.0288 38.6295 15.0288C37.714 15.0288 37.0478 15.8113 37.0478 16.7063C37.0478 17.5901 37.714 18.3726 38.6295 18.3726C39.1819 18.3742 39.7012 18.1699 40.0753 17.6155Z" fill="white"/>
<path d="M43.8603 18.1826V19.3848H42.5613V11.335H43.8603V16.4592L46.2107 14.0214H47.8712L45.7245 16.2438L48.1759 19.3848H46.4806L44.8201 17.1863L43.8603 18.1826Z" fill="white"/>
<path d="M52.2214 19.3262C51.6232 19.5068 51.3517 19.5527 50.8876 19.5527C49.6106 19.5527 48.8198 18.7021 48.8198 17.3193V12.0604H50.1189V14.0214H52.0967V15.1207H50.1189V17.3193C50.1189 18.0337 50.5025 18.3394 51.1354 18.3394C51.429 18.3394 51.7573 18.2824 52.0399 18.2032L52.2214 19.3262Z" fill="white"/>
<path d="M58.4865 16.4244V19.3833H57.1874V16.5036C57.1874 15.5627 56.6902 15.0415 55.8773 15.0415C55.4148 15.0415 54.9066 15.314 54.4993 15.8129V19.3833H53.1892V11.335H54.4993V14.4634C54.9618 14.0785 55.5048 13.8519 56.1488 13.8519C57.5489 13.8519 58.4865 14.872 58.4865 16.4244Z" fill="white"/>
<path d="M60.9 14.701C61.3861 14.202 62.0301 13.9185 62.843 13.9185V15.154C61.9954 15.1872 61.3624 15.4834 60.9 16.0489V19.3833H59.5898V14.0214H60.9V14.701Z" fill="white"/>
<path d="M68.8709 16.7078C68.8709 18.3409 67.6508 19.5527 66.036 19.5527C64.4086 19.5527 63.1885 18.3394 63.1885 16.7078C63.1885 15.0874 64.4086 13.8962 66.036 13.8962C67.6508 13.8962 68.8709 15.0874 68.8709 16.7078ZM67.5718 16.7078C67.5718 15.8002 66.9499 15.0874 66.036 15.0874C65.1095 15.0874 64.4891 15.8018 64.4891 16.7078C64.4891 17.6266 65.111 18.3631 66.036 18.3631C66.9515 18.3631 67.5718 17.6266 67.5718 16.7078Z" fill="white"/>
<path d="M74.956 19.3833H73.6569V18.9303C73.1944 19.3279 72.6514 19.5544 71.9964 19.5544C70.5963 19.5544 69.6587 18.5343 69.6587 16.9804V14.0215H70.9578V16.9012C70.9578 17.831 71.455 18.3632 72.2679 18.3632C72.743 18.3632 73.2513 18.0797 73.6569 17.5696V14.0215H74.956V19.3833V19.3833Z" fill="white"/>
<path d="M81.4796 19.3833C81.4796 21.0497 80.3494 22.0587 78.7678 22.0587C77.2651 22.0587 76.135 21.14 76.0118 19.8363H77.333C77.423 20.4478 77.9549 20.8675 78.7678 20.8675C79.5807 20.8675 80.1805 20.3353 80.1805 19.3817V18.7133C79.7402 19.0301 79.1751 19.2122 78.5311 19.2122C77.0394 19.2122 75.854 17.9656 75.854 16.559C75.854 14.9608 77.0394 13.8156 78.5311 13.8156C79.1751 13.8156 79.7402 13.9961 80.1805 14.3145V14.0199H81.4796V19.3833ZM80.1805 17.3209V15.71C79.808 15.154 79.265 14.9386 78.7236 14.9386C77.7971 14.9386 77.1531 15.6308 77.1531 16.5606C77.1531 17.2972 77.7971 18.0797 78.7236 18.0797C79.2666 18.0797 79.808 17.8753 80.1805 17.3209Z" fill="white"/>
<path d="M87.9658 16.4244V19.3833H86.6667V16.5036C86.6667 15.5627 86.1695 15.0415 85.3566 15.0415C84.8941 15.0415 84.3858 15.314 83.9786 15.8129V19.3833H82.6685V11.335H83.9786V14.4634C84.4411 14.0785 84.9841 13.8519 85.6281 13.8519C87.0282 13.8519 87.9658 14.872 87.9658 16.4244Z" fill="white"/>
<path d="M93.8991 14.9512H97.6732V16.2089H93.8991V18.1256H98.1246V19.3833H92.5432V11.674H98.1246V12.9316H93.8991V14.9512Z" fill="white"/>
<path d="M104.467 16.4243V19.3833H103.168V16.5035C103.168 15.5626 102.67 15.0415 101.858 15.0415C101.395 15.0415 100.887 15.314 100.48 15.8129V19.3833H99.1694V14.0214H100.48V14.4634C100.942 14.0784 101.485 13.8519 102.129 13.8519C103.529 13.8519 104.467 14.872 104.467 16.4243Z" fill="white"/>
<path d="M110.686 17.218H110.675H106.585C106.743 17.8865 107.24 18.3965 108.145 18.3965C108.664 18.3965 109.036 18.227 109.229 17.8975H110.618C110.313 18.8844 109.33 19.5069 108.11 19.5069C106.404 19.5069 105.275 18.2935 105.275 16.7064C105.275 15.1081 106.405 13.8948 108.11 13.8948C109.59 13.8948 110.708 15.0052 110.719 16.6161C110.719 16.8093 110.719 17.0137 110.686 17.218ZM106.574 16.2438H109.398C109.297 15.4851 108.822 15.0083 108.042 15.0083C107.205 15.0083 106.721 15.5516 106.574 16.2438Z" fill="white"/>
<path d="M112.951 14.701C113.437 14.202 114.081 13.9185 114.894 13.9185V15.154C114.046 15.1888 113.413 15.4834 112.951 16.0489V19.3833H111.641V14.0214H112.951V14.701Z" fill="white"/>
<path d="M120.925 19.3833C120.925 21.0497 119.795 22.0587 118.214 22.0587C116.711 22.0587 115.581 21.14 115.458 19.8363H116.779C116.869 20.4478 117.401 20.8675 118.214 20.8675C119.027 20.8675 119.626 20.3353 119.626 19.3817V18.7133C119.186 19.0301 118.621 19.2122 117.977 19.2122C116.485 19.2122 115.3 17.9656 115.3 16.559C115.3 14.9608 116.485 13.8156 117.977 13.8156C118.621 13.8156 119.186 13.9961 119.626 14.3145V14.0199H120.925V19.3833V19.3833ZM119.625 17.3209V15.71C119.252 15.154 118.709 14.9386 118.168 14.9386C117.241 14.9386 116.597 15.6308 116.597 16.5606C116.597 17.2972 117.241 18.0797 118.168 18.0797C118.711 18.0797 119.252 17.8753 119.625 17.3209Z" fill="white"/>
<path d="M124.51 22.0587H123.132L124.216 19.5639L121.562 14.0088H122.962L124.883 18.0226L126.622 14.0088H128L124.51 22.0587Z" fill="white"/>
<path d="M10.4083 21.3887C10.0357 21.5439 9.85737 21.9732 10.0121 22.347C10.1668 22.7208 10.5945 22.8998 10.967 22.7446C11.3395 22.5894 11.5179 22.1601 11.3632 21.7863C11.2101 21.4109 10.7823 21.2335 10.4083 21.3887Z" fill="white"/>
<path d="M1.32897 18.9082C1.73259 18.9082 2.05979 18.5798 2.05979 18.1748C2.05979 17.7698 1.73259 17.4414 1.32897 17.4414C0.925346 17.4414 0.598145 17.7698 0.598145 18.1748C0.598145 18.5798 0.925346 18.9082 1.32897 18.9082Z" fill="white"/>
<path d="M5.4851 9.46118C5.85761 9.30595 6.03598 8.87669 5.88129 8.50286C5.7266 8.12904 5.29884 7.95004 4.92632 8.10528C4.55381 8.26051 4.37544 8.68977 4.53013 9.0636C4.68482 9.43742 5.11258 9.61641 5.4851 9.46118Z" fill="white"/>
<path d="M14.8452 13.3514C15.2177 13.1962 15.3961 12.7669 15.2414 12.3931C15.0867 12.0193 14.6589 11.8403 14.2864 11.9955C13.9139 12.1508 13.7355 12.58 13.8902 12.9539C14.0449 13.3277 14.4727 13.5067 14.8452 13.3514Z" fill="white"/>
<path d="M13.3174 13.2089C13.0774 12.6276 12.5376 12.2648 11.9094 12.2648H11.106V11.4586C11.106 10.8281 10.7461 10.288 10.1652 10.0456C9.58591 9.80486 8.94979 9.93158 8.50466 10.3767L7.93642 10.9469L7.36818 10.3767C6.92463 9.93158 6.28851 9.80486 5.70764 10.0456C5.12835 10.2864 4.76688 10.8281 4.76688 11.4586V12.2648H3.96345C3.33522 12.2648 2.79697 12.626 2.55546 13.2089C2.31554 13.7902 2.44182 14.4286 2.88536 14.8752L3.45361 15.4455L2.88536 16.0157C2.44182 16.4608 2.31554 17.0992 2.55546 17.6821C2.79539 18.2634 3.33522 18.6262 3.96345 18.6262H4.76688V19.4308C4.76688 20.0613 5.12677 20.6014 5.70764 20.8438C5.90179 20.9245 6.10225 20.9641 6.29956 20.9641C6.69102 20.9641 7.07143 20.8089 7.3666 20.5127L7.93484 19.9425L8.50309 20.5127C8.79826 20.8089 9.17866 20.9641 9.57012 20.9641C9.76743 20.9641 9.96789 20.9245 10.162 20.8438C10.7413 20.603 11.1028 20.0613 11.1028 19.4308V18.6246H11.9062C12.5345 18.6246 13.0727 18.2634 13.3142 17.6805C13.5541 17.0992 13.4279 16.4608 12.9843 16.0141L12.4161 15.4439L12.9843 14.8737C13.431 14.4301 13.5573 13.7918 13.3174 13.2089ZM9.15657 11.0309C9.42175 10.7648 9.72797 10.863 9.81478 10.8994C9.9016 10.9358 10.1873 11.0832 10.1873 11.4601V12.2664H9.50067C9.33967 12.2664 9.18813 12.203 9.07291 12.089L8.58674 11.6027L9.15657 11.0309ZM10.634 14.9576L11.1202 15.4455L10.6356 15.9318C10.3483 16.2201 10.1889 16.605 10.1889 17.0121V17.7011H9.50225C9.09501 17.7011 8.71302 17.8595 8.42574 18.1494L7.94116 18.6372L7.45499 18.1494C7.16771 17.8611 6.78415 17.7011 6.37848 17.7011H5.69186V17.0121C5.69186 16.6034 5.53401 16.2201 5.24515 15.9318L4.75899 15.4439L5.24515 14.956C5.53243 14.6677 5.69186 14.2828 5.69186 13.8757V13.1867H6.37848C6.78573 13.1867 7.16771 13.0283 7.45499 12.7384L7.93958 12.2506L8.42416 12.7384C8.71144 13.0267 9.09501 13.1867 9.50067 13.1867H10.1873V13.8757C10.1873 14.2844 10.3467 14.6693 10.634 14.9576ZM5.69028 11.4601C5.69028 11.0847 5.97598 10.9358 6.06279 10.8994C6.10383 10.882 6.19381 10.8519 6.3043 10.8519C6.42899 10.8519 6.58053 10.8899 6.72101 11.0309L7.28925 11.6011L6.80467 12.0874C6.69102 12.2015 6.53949 12.2648 6.37691 12.2648H5.69028V11.4601ZM3.54042 14.2226C3.27524 13.9565 3.3731 13.6492 3.40941 13.5621C3.44571 13.475 3.59251 13.1883 3.9666 13.1883H4.77004V13.8773C4.77004 14.0389 4.7069 14.191 4.59325 14.3066L4.10709 14.7945L3.54042 14.2226ZM3.96818 17.7011C3.59409 17.7011 3.44571 17.4144 3.41099 17.3273C3.37468 17.2402 3.27682 16.9329 3.542 16.6668L4.11024 16.0965L4.59641 16.5844C4.71006 16.6984 4.77319 16.8505 4.77319 17.0121V17.7011H3.96818ZM6.72101 19.8585C6.45583 20.1246 6.15119 20.0264 6.06279 19.99C5.97598 19.9536 5.69028 19.8062 5.69028 19.4308V18.6246H6.37691C6.53791 18.6246 6.68944 18.6879 6.80467 18.802L7.29083 19.2899L6.72101 19.8585ZM10.1873 19.4308C10.1873 19.8062 9.9016 19.9551 9.81478 19.99C9.72797 20.0264 9.42175 20.1246 9.15657 19.8585L8.58832 19.2883L9.07291 18.802C9.18656 18.6879 9.33809 18.6246 9.50067 18.6246H10.1873V19.4308ZM12.3372 16.6668C12.6023 16.9329 12.5045 17.2402 12.4682 17.3273C12.4319 17.4144 12.2851 17.7011 11.911 17.7011H11.1075V17.0121C11.1075 16.8505 11.1707 16.6984 11.2843 16.5828L11.7705 16.0949L12.3372 16.6668ZM12.3372 14.2226L11.7689 14.7929L11.2827 14.305C11.1691 14.191 11.106 14.0389 11.106 13.8757V13.1867H11.9094C12.2835 13.1867 12.4319 13.4734 12.4666 13.5605C12.5045 13.6492 12.6023 13.9565 12.3372 14.2226Z" fill="white"/>
<path d="M10.4083 9.46115C10.7808 9.61639 11.2086 9.43898 11.3633 9.06357C11.518 8.68974 11.3412 8.26048 10.9671 8.10525C10.5946 7.95002 10.1668 8.12742 10.0121 8.50283C9.85902 8.87666 10.0358 9.30592 10.4083 9.46115Z" fill="white"/>
<path d="M5.48507 21.3887C5.11255 21.2335 4.68479 21.4109 4.5301 21.7863C4.37541 22.1601 4.5522 22.5894 4.92629 22.7446C5.29881 22.8998 5.72657 22.7224 5.88126 22.347C6.03595 21.9716 5.85916 21.5423 5.48507 21.3887Z" fill="white"/>
<path d="M1.60836 11.9955C1.23584 11.8403 0.80808 12.0177 0.653391 12.3931C0.498703 12.7669 0.67549 13.1962 1.04958 13.3514C1.4221 13.5066 1.84986 13.3292 2.00455 12.9538C2.15924 12.58 1.98245 12.1507 1.60836 11.9955Z" fill="white"/>
<path d="M14.8452 17.4967C14.4727 17.3415 14.0449 17.5189 13.8902 17.8943C13.7355 18.2681 13.9123 18.6974 14.2864 18.8526C14.6589 19.0079 15.0867 18.8305 15.2414 18.455C15.3961 18.0812 15.2177 17.652 14.8452 17.4967Z" fill="white"/>
<path d="M18.4978 7.55235V3.16467H21.1575V3.59552H18.984V5.11141H20.7787V5.53592H18.984V7.11992H21.1575V7.55077H18.4978V7.55235Z" fill="white"/>
<path d="M23.6719 5.74501V5.30783H24.8779V7.46365C24.3475 7.56503 23.874 7.61572 23.4572 7.61572C22.8211 7.61572 22.3807 7.43197 22.1345 7.06449C21.8883 6.697 21.7651 6.12993 21.7651 5.36169C21.7651 4.59503 21.8883 4.02637 22.1345 3.65572C22.3807 3.28665 22.818 3.10132 23.4446 3.10132C23.8361 3.10132 24.2433 3.14409 24.6632 3.22804L24.8779 3.26605L24.8589 3.67156C24.3364 3.58285 23.8834 3.5385 23.5014 3.5385C23.0169 3.5385 22.6901 3.67948 22.5228 3.95985C22.3539 4.24021 22.2702 4.70749 22.2702 5.3601C22.2702 6.01271 22.3539 6.47999 22.5228 6.76036C22.6917 7.04073 23.0153 7.1817 23.4951 7.1817C23.7903 7.1817 24.0902 7.15161 24.398 7.093V5.74343H23.6719V5.74501Z" fill="white"/>
<path d="M28.5415 7.55235V5.5676H26.3175V7.55235H25.8313V3.16467H26.3175V5.13042H28.5415V3.16467H29.0214V7.55235H28.5415Z" fill="white"/>
<path d="M29.7112 7.55235L30.9108 3.16467H31.9715L33.1712 7.55235H32.6913L32.3756 6.42454H30.5051L30.1895 7.55235H29.7112ZM31.277 3.58285L30.6141 5.98578H32.2699L31.6069 3.58285H31.277V3.58285Z" fill="white"/>
<path d="M36.4259 7.48108C35.9918 7.56979 35.6019 7.61414 35.2578 7.61414C34.9122 7.61414 34.6328 7.56662 34.4213 7.47158C34.2082 7.37654 34.044 7.22922 33.9288 7.02806C33.8136 6.82689 33.7331 6.59721 33.6889 6.33743C33.6447 6.07766 33.6226 5.75294 33.6226 5.36486C33.6226 4.97678 33.6447 4.64889 33.6889 4.38595C33.7331 4.12142 33.8136 3.88857 33.9288 3.68582C34.044 3.48307 34.2082 3.33575 34.4181 3.2423C34.628 3.14884 34.9027 3.10291 35.2389 3.10291C35.5751 3.10291 35.9713 3.14884 36.4259 3.2423L36.407 3.65414C35.9808 3.57811 35.6019 3.54009 35.2705 3.54009C34.8064 3.54009 34.5002 3.6779 34.3518 3.9551C34.2019 4.2323 34.1277 4.70433 34.1277 5.37119C34.1277 5.70542 34.1419 5.97311 34.1687 6.17586C34.1955 6.37862 34.2492 6.56078 34.3297 6.72393C34.4102 6.88708 34.527 7.00271 34.6801 7.07241C34.8332 7.1421 35.059 7.17695 35.3557 7.17695C35.6525 7.17695 36.0029 7.13894 36.407 7.0629L36.4259 7.48108Z" fill="white"/>
<path d="M38.53 3.66525V3.11401H39.0036V3.66525H38.53ZM38.53 7.55238V4.38121H39.0036V7.5508H38.53V7.55238Z" fill="white"/>
<path d="M40.9039 4.74397C40.4446 4.74397 40.2157 4.90395 40.2157 5.22551C40.2157 5.37282 40.2678 5.47736 40.3736 5.53914C40.4793 5.60091 40.7192 5.66427 41.0933 5.72922C41.4674 5.79416 41.7342 5.88762 41.8889 6.00483C42.0451 6.12363 42.1225 6.34539 42.1225 6.67011C42.1225 6.99483 42.0183 7.23402 41.8099 7.38608C41.6016 7.53815 41.297 7.61418 40.8976 7.61418C40.6372 7.61418 40.3294 7.58408 39.9758 7.52547L39.7864 7.49379L39.8116 7.08195C40.2915 7.15323 40.6545 7.18967 40.8976 7.18967C41.1423 7.18967 41.3285 7.15007 41.4564 7.07245C41.5842 6.99483 41.6489 6.86336 41.6489 6.67962C41.6489 6.49587 41.5937 6.37074 41.4848 6.30579C41.3759 6.24085 41.136 6.17749 40.765 6.11888C40.3941 6.06027 40.1305 5.97315 39.9758 5.85911C39.8195 5.74506 39.7422 5.53439 39.7422 5.22551C39.7422 4.91663 39.8511 4.68853 40.0673 4.54122C40.2836 4.39391 40.5551 4.31946 40.8787 4.31946C41.136 4.31946 41.458 4.34955 41.8447 4.40816L42.0215 4.43984L42.0088 4.84535C41.5432 4.77723 41.1738 4.74397 40.9039 4.74397Z" fill="white"/>
<path d="M45.2321 4.74397C44.7727 4.74397 44.5438 4.90395 44.5438 5.22551C44.5438 5.37282 44.5959 5.47736 44.7017 5.53914C44.8075 5.60091 45.0474 5.66427 45.4215 5.72922C45.7956 5.79416 46.0623 5.88762 46.217 6.00483C46.3733 6.12363 46.4506 6.34539 46.4506 6.67011C46.4506 6.99483 46.3464 7.23402 46.1381 7.38608C45.9297 7.53815 45.6251 7.61418 45.2257 7.61418C44.9653 7.61418 44.6575 7.58408 44.3039 7.52547L44.1145 7.49379L44.1398 7.08195C44.6196 7.15323 44.9827 7.18967 45.2257 7.18967C45.4704 7.18967 45.6567 7.15007 45.7845 7.07245C45.9124 6.99483 45.9771 6.86336 45.9771 6.67962C45.9771 6.49587 45.9218 6.37074 45.8129 6.30579C45.704 6.24085 45.4641 6.17749 45.0932 6.11888C44.7222 6.06027 44.4586 5.97315 44.3039 5.85911C44.1477 5.74506 44.0703 5.53439 44.0703 5.22551C44.0703 4.91663 44.1792 4.68853 44.3955 4.54122C44.6117 4.39391 44.8832 4.31946 45.2068 4.31946C45.4641 4.31946 45.7861 4.34955 46.1728 4.40816L46.3496 4.43984L46.337 4.84535C45.8698 4.77723 45.502 4.74397 45.2321 4.74397Z" fill="white"/>
<path d="M49.1482 4.38123H49.6217V7.55081H49.1482V7.32905C48.8325 7.51913 48.52 7.61417 48.2138 7.61417C47.7844 7.61417 47.4987 7.50171 47.3582 7.27836C47.2178 7.05502 47.1467 6.64001 47.1467 6.03651V4.38123H47.6203V6.03017C47.6203 6.49111 47.6597 6.79999 47.7402 6.95523C47.8207 7.11204 48.0007 7.18966 48.2832 7.18966C48.4221 7.18966 48.5626 7.16907 48.7062 7.12947C48.8499 7.08987 48.9588 7.05027 49.0346 7.01225L49.1482 6.95523V4.38123Z" fill="white"/>
<path d="M50.5325 8.95899V4.38123H50.9997V4.60933C51.3201 4.4145 51.6358 4.31787 51.9468 4.31787C52.3461 4.31787 52.6381 4.44618 52.8181 4.7012C52.9996 4.95781 53.0896 5.37915 53.0896 5.96523C53.0896 6.5529 52.9838 6.97424 52.7707 7.22926C52.5576 7.48587 52.2056 7.61259 51.7132 7.61259C51.4559 7.61259 51.2207 7.58883 51.006 7.5429V8.95582H50.5325V8.95899ZM51.8773 4.74397C51.751 4.74397 51.6153 4.76456 51.4701 4.80733C51.3249 4.8501 51.2096 4.89128 51.126 4.93405L51.006 4.99741V7.13422C51.3043 7.18016 51.5316 7.20392 51.6879 7.20392C52.0288 7.20392 52.2672 7.1073 52.4045 6.91246C52.5418 6.71763 52.6097 6.40083 52.6097 5.96206C52.6097 5.5233 52.5482 5.20966 52.4235 5.02434C52.2988 4.83584 52.1172 4.74397 51.8773 4.74397Z" fill="white"/>
<path d="M53.8616 8.95899V4.38123H54.3288V4.60933C54.6492 4.4145 54.9649 4.31787 55.2759 4.31787C55.6752 4.31787 55.9672 4.44618 56.1472 4.7012C56.3287 4.95781 56.4187 5.37915 56.4187 5.96523C56.4187 6.5529 56.3129 6.97424 56.0998 7.22926C55.8867 7.48587 55.5347 7.61259 55.0423 7.61259C54.785 7.61259 54.5498 7.58883 54.3351 7.5429V8.95582H53.8616V8.95899ZM55.2064 4.74397C55.0801 4.74397 54.9444 4.76456 54.7992 4.80733C54.654 4.8501 54.5387 4.89128 54.4551 4.93405L54.3351 4.99741V7.13422C54.6334 7.18016 54.8607 7.20392 55.017 7.20392C55.3579 7.20392 55.5963 7.1073 55.7336 6.91246C55.8709 6.71763 55.9388 6.40083 55.9388 5.96206C55.9388 5.5233 55.8773 5.20966 55.7526 5.02434C55.6294 4.83584 55.4463 4.74397 55.2064 4.74397Z" fill="white"/>
<path d="M57.0515 5.96048C57.0515 5.38074 57.1541 4.96256 57.3609 4.70595C57.5677 4.44776 57.9165 4.31946 58.4058 4.31946C58.8967 4.31946 59.244 4.44776 59.4476 4.70595C59.6512 4.96415 59.7538 5.38232 59.7538 5.96048C59.7538 6.54023 59.6575 6.95999 59.4634 7.22135C59.2692 7.48271 58.9157 7.61418 58.4027 7.61418C57.8881 7.61418 57.5345 7.48271 57.3419 7.22135C57.1478 6.95999 57.0515 6.54023 57.0515 5.96048ZM57.5377 5.95098C57.5377 6.41351 57.5929 6.73823 57.705 6.92355C57.8171 7.10888 58.0507 7.20234 58.4058 7.20234C58.761 7.20234 58.9946 7.11047 59.1035 6.92672C59.2124 6.74298 59.2677 6.41826 59.2677 5.95415C59.2677 5.49003 59.2061 5.16848 59.0846 4.99424C58.963 4.81842 58.7357 4.7313 58.4058 4.7313C58.0759 4.7313 57.8471 4.81842 57.7239 4.99424C57.5992 5.16848 57.5377 5.48845 57.5377 5.95098Z" fill="white"/>
<path d="M60.5256 7.55239V4.38122H60.9929V4.81207C61.3591 4.55863 61.7442 4.39072 62.1483 4.31152V4.79306C61.9715 4.82632 61.7868 4.88018 61.5958 4.95146C61.4048 5.02274 61.258 5.0861 61.157 5.14154L60.9992 5.22391V7.5508H60.5256V7.55239Z" fill="white"/>
<path d="M64.3471 4.7947H63.3432V6.309C63.3432 6.67174 63.3701 6.91092 63.4222 7.02497C63.4742 7.13902 63.6005 7.19604 63.7978 7.19604L64.3598 7.15803L64.3913 7.55086C64.1088 7.59679 63.8941 7.62055 63.7473 7.62055C63.419 7.62055 63.1917 7.53977 63.0654 7.37979C62.9392 7.2198 62.876 6.91251 62.876 6.46107V4.7947H62.4277V4.38286H62.876V3.41187H63.3432V4.38127H64.3471V4.7947Z" fill="white"/>
<path d="M67.0764 7.15798L67.2595 7.13897L67.2721 7.5128C66.7923 7.58091 66.3819 7.61417 66.0409 7.61417C65.5863 7.61417 65.2643 7.4827 65.0749 7.21817C64.8855 6.95365 64.7908 6.54339 64.7908 5.98582C64.7908 4.87386 65.2312 4.31787 66.1119 4.31787C66.5381 4.31787 66.8554 4.43667 67.0653 4.67586C67.2753 4.91504 67.381 5.29045 67.381 5.8005L67.3558 6.16165H65.2706C65.2706 6.51171 65.3338 6.77307 65.46 6.94097C65.5863 7.11046 65.8073 7.19442 66.1198 7.19442C66.4324 7.196 66.7528 7.18333 67.0764 7.15798ZM66.9059 5.78307C66.9059 5.39341 66.8444 5.11938 66.7197 4.95939C66.595 4.79941 66.3929 4.71862 66.1135 4.71862C65.8341 4.71862 65.6226 4.80258 65.4821 4.97206C65.3417 5.14155 65.269 5.41242 65.2643 5.78307H66.9059Z" fill="white"/>
<path d="M70.5441 3V7.55242H70.0769V7.33699C69.7533 7.52232 69.4329 7.61578 69.1172 7.61578C68.9483 7.61578 68.8015 7.59518 68.6752 7.55242C68.549 7.50965 68.4306 7.43362 68.3217 7.32432C68.0944 7.09622 67.9807 6.67488 67.9807 6.06029C67.9807 5.4457 68.0833 5.00218 68.2869 4.72814C68.4905 4.4557 68.8283 4.31947 69.3003 4.31947C69.545 4.31947 69.8038 4.3464 70.0769 4.40184V3H70.5441ZM68.9025 7.14533C68.9783 7.17542 69.0762 7.18968 69.1961 7.18968C69.3161 7.18968 69.4502 7.16909 69.6002 7.12949C69.7502 7.08989 69.867 7.05029 69.9506 7.01227L70.0769 6.95525V4.80734C69.807 4.75666 69.556 4.73131 69.3256 4.73131C69.0051 4.73131 68.7826 4.83427 68.6563 5.03861C68.53 5.24294 68.4669 5.56133 68.4669 5.99218C68.4669 6.48322 68.5411 6.81269 68.6879 6.98059C68.7542 7.06138 68.8268 7.11682 68.9025 7.14533Z" fill="white"/>
<path d="M74.2457 4.31789C74.6703 4.31789 74.9686 4.43986 75.1391 4.68221C75.3096 4.92614 75.3948 5.35066 75.3948 5.95891C75.3948 6.56717 75.2891 6.99485 75.076 7.24195C74.8629 7.48906 74.473 7.61261 73.9048 7.61261C73.728 7.61261 73.4344 7.59518 73.0271 7.56192L72.8503 7.54291V3H73.3176V4.53965C73.638 4.39234 73.9474 4.31789 74.2457 4.31789ZM73.8984 7.18968C74.3104 7.18968 74.5835 7.09622 74.7161 6.90773C74.8487 6.71923 74.915 6.40243 74.915 5.95416C74.915 5.50589 74.8629 5.19226 74.7571 5.01326C74.6514 4.83427 74.4651 4.74398 74.1952 4.74398C73.9505 4.74398 73.6996 4.78992 73.4438 4.88338L73.3176 4.92773V7.15958C73.5906 7.18018 73.7848 7.18968 73.8984 7.18968Z" fill="white"/>
<path d="M75.8193 4.38123H76.2929L77.0821 7.13897H77.2905L78.086 4.38123H78.5595L77.2447 8.95898H76.7711L77.1815 7.55239H76.7143L75.8193 4.38123Z" fill="white"/>
</g>
<defs>
<clipPath id="clip0">
<rect width="127.402" height="19.8" fill="white" transform="translate(0.598145 3)"/>
</clipPath>
</defs>
</svg>
