<svg width="126" height="40" viewBox="0 0 126 40" fill="none" xmlns="http://www.w3.org/2000/svg">
<path d="M60.7173 28.4109V25.9096C60.7173 25.6128 60.6891 25.3725 60.6467 25.1606C60.5902 24.9486 60.5195 24.7648 60.3923 24.6094C60.2793 24.4539 60.1238 24.3267 59.9401 24.242C59.7564 24.143 59.5162 24.1007 59.2477 24.1007C59.0074 24.1007 58.7813 24.1572 58.5552 24.2843C58.329 24.3974 58.0888 24.5953 57.8627 24.8497V24.3126C57.8627 24.2844 57.8627 24.2702 57.8486 24.2561C57.8344 24.242 57.8203 24.2278 57.7921 24.2137C57.7638 24.1996 57.7355 24.1855 57.6931 24.1855C57.6507 24.1855 57.5942 24.1713 57.5236 24.1713C57.4529 24.1713 57.3963 24.1713 57.3539 24.1855C57.3115 24.1855 57.2833 24.1996 57.255 24.2137C57.2268 24.2278 57.2126 24.242 57.1985 24.2561C57.1844 24.2702 57.1844 24.2985 57.1844 24.3126V28.425C57.1844 28.4533 57.1844 28.4674 57.1985 28.4815C57.2126 28.4957 57.2268 28.5098 57.255 28.5239C57.2833 28.5381 57.3257 28.5522 57.3681 28.5522C57.4105 28.5522 57.4811 28.5663 57.5518 28.5663C57.6225 28.5663 57.6931 28.5663 57.7355 28.5522C57.7779 28.5522 57.8203 28.5381 57.8486 28.5239C57.8768 28.5098 57.891 28.4957 57.9051 28.4815C57.9192 28.4674 57.9193 28.4392 57.9193 28.425V25.5563C58.1312 25.3019 58.3291 25.104 58.5128 24.9627C58.6965 24.8355 58.8943 24.7648 59.078 24.7648C59.2194 24.7648 59.3466 24.7931 59.4596 24.8497C59.5727 24.9062 59.6575 24.9768 59.7281 25.0899C59.7988 25.1888 59.8553 25.316 59.8836 25.4573C59.926 25.5986 59.9401 25.7823 59.9401 26.0226V28.425C59.9401 28.4533 59.9401 28.4674 59.9542 28.4815C59.9684 28.4957 59.9825 28.5098 60.0107 28.5239C60.039 28.5381 60.0814 28.5522 60.1238 28.5522C60.1662 28.5522 60.2369 28.5663 60.3075 28.5663C60.3782 28.5663 60.4488 28.5663 60.4912 28.5522C60.5336 28.5522 60.576 28.5381 60.6043 28.5239C60.6326 28.5098 60.6467 28.4957 60.6608 28.4815C60.7032 28.4674 60.7173 28.4391 60.7173 28.4109ZM60.6185 14.9714C60.675 14.9149 60.7032 14.8301 60.7032 14.7171V14.5757C60.7032 14.3072 60.675 14.0529 60.6043 13.8267C60.5336 13.5865 60.4347 13.3886 60.2793 13.2049C60.1379 13.0353 59.9401 12.894 59.714 12.781C59.4879 12.6821 59.2194 12.6255 58.8944 12.6255C58.5976 12.6255 58.3149 12.6821 58.0747 12.781C57.8344 12.8799 57.6225 13.0354 57.4529 13.2332C57.2833 13.4311 57.1561 13.6713 57.0572 13.9539C56.9724 14.2366 56.9159 14.5475 56.9159 14.9008C56.9159 15.2682 56.9583 15.5932 57.0431 15.8759C57.1279 16.1585 57.2551 16.3846 57.4388 16.5683C57.6084 16.752 57.8203 16.8934 58.0747 16.9923C58.3291 17.0912 58.6258 17.1336 58.965 17.1336C59.1628 17.1336 59.3466 17.1195 59.5162 17.0912C59.6857 17.0629 59.8412 17.0347 59.9683 16.9923C60.0955 16.9499 60.2086 16.9216 60.2934 16.8792C60.3782 16.8368 60.4206 16.8086 60.4488 16.7945C60.463 16.7803 60.4771 16.7662 60.4912 16.7379C60.5054 16.7238 60.5054 16.6955 60.5195 16.6814C60.5195 16.6532 60.5336 16.639 60.5336 16.6107C60.5336 16.5825 60.5336 16.5542 60.5336 16.5118C60.5336 16.4553 60.5336 16.4129 60.5195 16.3705C60.5195 16.3281 60.5054 16.2998 60.5054 16.2857C60.4912 16.2574 60.4771 16.2433 60.463 16.2433C60.4488 16.2292 60.4206 16.2292 60.4064 16.2292C60.364 16.2292 60.3217 16.2433 60.2369 16.2716C60.1662 16.2998 60.0673 16.3422 59.9683 16.3846C59.8553 16.427 59.7281 16.4553 59.5727 16.4977C59.4172 16.526 59.2476 16.5401 59.0498 16.5401C58.7954 16.5401 58.5976 16.4977 58.428 16.4412C58.2584 16.3705 58.1171 16.2716 58.004 16.1444C57.891 16.0172 57.8203 15.8617 57.7779 15.678C57.7355 15.4943 57.7072 15.2965 57.7072 15.0562H60.4064C60.4912 15.0421 60.5619 15.0138 60.6185 14.9714ZM59.9542 14.4909H57.7072C57.7072 14.3214 57.7355 14.1659 57.7921 14.0105C57.8486 13.855 57.9192 13.7278 58.0181 13.6006C58.1171 13.4876 58.2301 13.3887 58.3714 13.318C58.5128 13.2474 58.6823 13.2191 58.8661 13.2191C59.2335 13.2191 59.502 13.3321 59.6857 13.5582C59.8836 13.7843 59.9684 14.0952 59.9542 14.4909ZM55.969 27.2379C56.0538 26.9553 56.0962 26.6444 56.0962 26.3193C56.0962 25.9802 56.0538 25.6693 55.969 25.3866C55.8842 25.1181 55.757 24.8779 55.5874 24.6942C55.4179 24.4963 55.2059 24.355 54.9657 24.2561C54.7113 24.1572 54.4145 24.1007 54.0754 24.1007C53.7221 24.1007 53.4253 24.1572 53.1568 24.2702C52.8883 24.3833 52.6763 24.5387 52.5067 24.7507C52.3371 24.9486 52.1958 25.2029 52.111 25.4856C52.0262 25.7682 51.9838 26.0791 51.9838 26.4041C51.9838 26.7574 52.0262 27.0683 52.111 27.3368C52.1958 27.6054 52.323 27.8456 52.4785 28.0293C52.648 28.2272 52.86 28.3685 53.1003 28.4674C53.3546 28.5663 53.6514 28.6229 53.9906 28.6229C54.3439 28.6229 54.6406 28.5663 54.9091 28.4533C55.1777 28.3402 55.3896 28.1848 55.5733 27.9728C55.7571 27.7608 55.8842 27.5206 55.969 27.2379ZM55.319 26.3617C55.319 26.602 55.2907 26.814 55.2483 27.0118C55.2059 27.2097 55.1211 27.3792 55.0222 27.5206C54.9233 27.6619 54.7819 27.7749 54.6265 27.8597C54.4569 27.9445 54.2732 27.9728 54.0471 27.9728C53.8068 27.9728 53.5949 27.9304 53.4394 27.8456C53.2698 27.7608 53.1426 27.6478 53.0437 27.4923C52.9448 27.351 52.8741 27.1673 52.8318 26.9694C52.7894 26.7716 52.7752 26.5596 52.7752 26.3335C52.7752 26.0933 52.8035 25.8813 52.8459 25.6834C52.9024 25.4856 52.973 25.316 53.072 25.1747C53.1709 25.0333 53.3122 24.9203 53.4677 24.8355C53.6231 24.7507 53.821 24.7224 54.0471 24.7224C54.2873 24.7224 54.4993 24.7649 54.6548 24.8497C54.8244 24.9345 54.9515 25.0475 55.0363 25.203C55.1353 25.3584 55.2059 25.528 55.2341 25.7258C55.3048 25.9378 55.319 26.1498 55.319 26.3617ZM55.856 17.0064C55.8701 16.9923 55.8701 16.964 55.8701 16.9499V14.4485C55.8701 14.1518 55.8419 13.8974 55.7995 13.6996C55.7429 13.4876 55.6722 13.3039 55.5451 13.1484C55.432 12.993 55.2766 12.8658 55.0929 12.781C54.9092 12.6821 54.6689 12.6397 54.4004 12.6397C54.1743 12.6397 53.9623 12.6962 53.7362 12.8092C53.5101 12.9223 53.2981 13.0919 53.0861 13.318V10.859C53.0861 10.8308 53.0861 10.8167 53.072 10.7884C53.0578 10.7743 53.0437 10.7601 53.0155 10.746C52.9872 10.7319 52.9448 10.7177 52.9024 10.7177C52.86 10.7177 52.7893 10.7036 52.7187 10.7036C52.648 10.7036 52.5915 10.7036 52.535 10.7177C52.4926 10.7177 52.4502 10.7319 52.4219 10.746C52.3937 10.7601 52.3795 10.7743 52.3654 10.7884C52.3512 10.8025 52.3513 10.8308 52.3513 10.859V16.964C52.3513 16.9923 52.3512 17.0064 52.3654 17.0206C52.3795 17.0347 52.3937 17.0488 52.4219 17.063C52.4502 17.0771 52.4926 17.0912 52.535 17.0912C52.5774 17.0912 52.648 17.1054 52.7187 17.1054C52.7893 17.1054 52.86 17.1053 52.9024 17.0912C52.9448 17.0912 52.9872 17.0771 53.0155 17.063C53.0437 17.0488 53.0578 17.0347 53.072 17.0206C53.0861 17.0064 53.0861 16.9782 53.0861 16.964V14.0952C53.2981 13.8409 53.496 13.6431 53.6797 13.5017C53.8634 13.3745 54.0612 13.3039 54.2449 13.3039C54.3863 13.3039 54.5134 13.3321 54.6265 13.3887C54.7395 13.4452 54.8243 13.5159 54.895 13.6289C54.9657 13.7278 55.0222 13.855 55.0505 13.9963C55.0929 14.1376 55.107 14.3214 55.107 14.5616V16.964C55.107 16.9923 55.107 17.0064 55.1211 17.0206C55.1352 17.0347 55.1494 17.0488 55.1777 17.063C55.2059 17.0771 55.2483 17.0912 55.2907 17.0912C55.3331 17.0912 55.4038 17.1054 55.4744 17.1054C55.5451 17.1054 55.6016 17.1053 55.6581 17.0912C55.7005 17.0912 55.7429 17.0771 55.7712 17.063C55.8277 17.0347 55.8418 17.0206 55.856 17.0064ZM50.1749 15.6356V13.3463H51.2348C51.2772 13.3463 51.3196 13.318 51.3479 13.2756C51.3761 13.2332 51.3903 13.1484 51.3903 13.0354C51.3903 12.9788 51.3903 12.9223 51.3762 12.894C51.3762 12.8516 51.362 12.8234 51.3479 12.7951C51.3337 12.7669 51.3196 12.7527 51.3055 12.7386C51.2913 12.7245 51.2631 12.7245 51.2348 12.7245H50.1749V11.7493C50.1749 11.7211 50.1749 11.7069 50.1608 11.6928C50.1467 11.6787 50.1326 11.6645 50.1043 11.6504C50.076 11.6363 50.0336 11.6222 49.9912 11.6222C49.9488 11.6222 49.8782 11.608 49.8075 11.608C49.7368 11.608 49.6804 11.608 49.6238 11.6222C49.5814 11.6222 49.539 11.6363 49.5107 11.6504C49.4825 11.6645 49.4683 11.6787 49.4542 11.6928C49.4401 11.7069 49.4401 11.7352 49.4401 11.7493V12.7245H48.8748C48.8465 12.7245 48.8324 12.7245 48.8041 12.7386C48.79 12.7527 48.7618 12.7669 48.7618 12.7951C48.7476 12.8234 48.7335 12.8516 48.7335 12.894C48.7194 12.9364 48.7194 12.9788 48.7194 13.0354C48.7194 13.1484 48.7335 13.2191 48.7618 13.2756C48.79 13.318 48.8324 13.3463 48.8748 13.3463H49.4542V15.7487C49.4542 15.9889 49.4825 16.1868 49.5249 16.3705C49.5673 16.5401 49.6379 16.6955 49.7369 16.8086C49.8358 16.9217 49.963 17.0064 50.1043 17.063C50.2598 17.1195 50.4434 17.1477 50.6554 17.1477C50.7261 17.1477 50.7967 17.1477 50.8674 17.1336C50.9381 17.1195 51.0087 17.1054 51.0653 17.1054C51.1218 17.0912 51.1783 17.0771 51.2348 17.0488C51.2772 17.0206 51.3196 17.0064 51.3479 16.9782C51.3761 16.9499 51.3903 16.9216 51.4044 16.8651C51.4185 16.8086 51.4186 16.7379 51.4186 16.6531C51.4186 16.5966 51.4185 16.5542 51.4044 16.5118C51.4044 16.4694 51.3903 16.4411 51.3903 16.427C51.3762 16.4129 51.3762 16.3846 51.362 16.3846C51.3479 16.3705 51.3338 16.3705 51.3196 16.3705C51.2914 16.3705 51.2631 16.3846 51.2348 16.3846C51.2066 16.3987 51.1642 16.4129 51.1218 16.427C51.0794 16.4411 51.037 16.4553 50.9805 16.4694C50.9239 16.4835 50.8674 16.4977 50.7968 16.4977C50.5848 16.4977 50.4293 16.427 50.3445 16.2857C50.2173 16.1302 50.1749 15.9183 50.1749 15.6356ZM48.7618 25.1606C48.7052 24.9486 48.6346 24.7648 48.5074 24.6094C48.3943 24.4539 48.2389 24.3267 48.0552 24.242C47.8714 24.143 47.6312 24.1007 47.3627 24.1007C47.1225 24.1007 46.8963 24.1572 46.6702 24.2843C46.4441 24.3974 46.2039 24.5953 45.9778 24.8497V24.3126C45.9778 24.2844 45.9777 24.2702 45.9636 24.2561C45.9495 24.242 45.9354 24.2278 45.9071 24.2137C45.8789 24.1996 45.8506 24.1855 45.8082 24.1855C45.7658 24.1855 45.7093 24.1713 45.6386 24.1713C45.568 24.1713 45.5114 24.1713 45.469 24.1855C45.4266 24.1855 45.3984 24.1996 45.3701 24.2137C45.3418 24.2278 45.3277 24.242 45.3136 24.2561C45.2994 24.2702 45.2994 24.2985 45.2994 24.3126V28.425C45.2994 28.4533 45.2994 28.4674 45.3136 28.4815C45.3277 28.4957 45.3418 28.5098 45.3701 28.5239C45.3984 28.5381 45.4407 28.5522 45.4831 28.5522C45.5255 28.5522 45.5962 28.5663 45.6669 28.5663C45.7375 28.5663 45.8082 28.5663 45.8506 28.5522C45.893 28.5522 45.9354 28.5381 45.9636 28.5239C45.9919 28.5098 46.006 28.4957 46.0202 28.4815C46.0343 28.4674 46.0343 28.4392 46.0343 28.425V25.5563C46.2463 25.3019 46.4441 25.104 46.6278 24.9627C46.8115 24.8355 47.0094 24.7648 47.1931 24.7648C47.3344 24.7648 47.4616 24.7931 47.5747 24.8497C47.6877 24.9062 47.7725 24.9768 47.8432 25.0899C47.9138 25.1888 47.9704 25.316 47.9986 25.4573C48.041 25.5986 48.0552 25.7823 48.0552 26.0226V28.425C48.0552 28.4533 48.0552 28.4674 48.0693 28.4815C48.0834 28.4957 48.0975 28.5098 48.1258 28.5239C48.1541 28.5381 48.1965 28.5522 48.2389 28.5522C48.2813 28.5522 48.3519 28.5663 48.4226 28.5663C48.4933 28.5663 48.5498 28.5663 48.6063 28.5522C48.6487 28.5522 48.6911 28.5381 48.7194 28.5239C48.7476 28.5098 48.7618 28.4957 48.7759 28.4815C48.79 28.4674 48.79 28.4392 48.79 28.425V25.9237C48.8324 25.6128 48.8183 25.3725 48.7618 25.1606ZM46.3169 12.9788C46.331 12.9223 46.3452 12.8799 46.3452 12.8375C46.3452 12.7951 46.3311 12.7668 46.3028 12.7527C46.2746 12.7244 46.2322 12.7103 46.1756 12.7103C46.1191 12.6962 46.0484 12.6962 45.9636 12.6962C45.8647 12.6962 45.7941 12.6962 45.7375 12.7103C45.681 12.7103 45.6527 12.7244 45.6245 12.7527C45.5962 12.7668 45.5821 12.8093 45.5538 12.8658L44.4232 16.1868H44.4091L43.2362 12.894C43.222 12.8516 43.2079 12.8234 43.1938 12.7951C43.1796 12.7669 43.1514 12.7527 43.1231 12.7386C43.0949 12.7245 43.0525 12.7244 42.996 12.7103C42.9394 12.7103 42.8687 12.7103 42.7839 12.7103C42.6991 12.7103 42.6144 12.7103 42.5579 12.7245C42.5013 12.7245 42.4589 12.7527 42.4448 12.7668C42.4165 12.7951 42.4024 12.8234 42.4024 12.8516C42.4024 12.894 42.4165 12.9364 42.4448 13.0071L43.9145 16.9358C43.9286 16.964 43.9428 16.9923 43.9711 17.0206C43.9993 17.0488 44.0276 17.063 44.0417 17.0771L43.4764 18.5044C43.4623 18.5468 43.4481 18.5892 43.4481 18.6175C43.4481 18.6457 43.4623 18.674 43.4905 18.6881C43.5188 18.7023 43.5471 18.7164 43.6036 18.7305C43.646 18.7446 43.7166 18.7447 43.8014 18.7447C43.9569 18.7447 44.07 18.7305 44.1406 18.7023C44.2113 18.674 44.2678 18.6316 44.2819 18.5892L44.8331 17.0771L46.3169 12.9788ZM42.6992 27.5488C42.572 27.676 42.4307 27.7891 42.247 27.8456C42.0632 27.9163 41.8654 27.9445 41.6393 27.9445C41.4131 27.9445 41.2153 27.9163 41.0457 27.8456C40.862 27.775 40.7207 27.676 40.5935 27.5347C40.4663 27.3934 40.3674 27.2238 40.2967 27.0259C40.2261 26.8281 40.1978 26.5879 40.1978 26.3052V22.7299C40.1978 22.7016 40.1978 22.6875 40.1837 22.6592C40.1695 22.6451 40.1554 22.6309 40.1272 22.6168C40.0989 22.6027 40.0565 22.6027 40 22.5885C39.9434 22.5885 39.8869 22.5744 39.8163 22.5744C39.7315 22.5744 39.6749 22.5744 39.6184 22.5885C39.576 22.6027 39.5336 22.6027 39.5054 22.6168C39.4771 22.6309 39.4488 22.6451 39.4347 22.6592C39.4205 22.6733 39.4206 22.7016 39.4206 22.7299V26.39C39.4206 26.7575 39.4771 27.0684 39.576 27.351C39.6749 27.6336 39.8304 27.8597 40.0141 28.0434C40.2119 28.2272 40.438 28.3685 40.7065 28.4674C40.9751 28.5663 41.2718 28.6087 41.5969 28.6087C41.9502 28.6087 42.2752 28.5522 42.5579 28.4533C42.8405 28.3544 43.0807 28.1989 43.2645 28.0152C43.4623 27.8173 43.6036 27.5771 43.7166 27.2945C43.8156 27.0118 43.8721 26.6868 43.8721 26.3335V22.7299C43.8721 22.7016 43.8721 22.6875 43.858 22.6592C43.8438 22.6451 43.8156 22.6309 43.7873 22.6168C43.7591 22.6027 43.7167 22.6027 43.6743 22.5885C43.6177 22.5885 43.5612 22.5744 43.4905 22.5744C43.4199 22.5744 43.3493 22.5744 43.3069 22.5885C43.2503 22.6027 43.222 22.6027 43.1796 22.6168C43.1514 22.6309 43.1231 22.6451 43.1231 22.6592C43.109 22.6733 43.109 22.7016 43.109 22.7299V26.3335C43.109 26.602 43.0807 26.8281 43.0101 27.0259C42.9253 27.2379 42.8263 27.4075 42.6992 27.5488ZM41.7523 15.8052C41.823 15.5226 41.8654 15.1975 41.8654 14.8442C41.8654 14.5475 41.8371 14.2648 41.7806 13.9963C41.7241 13.7278 41.6251 13.5017 41.4838 13.2897C41.3566 13.0919 41.1729 12.9364 40.9751 12.8092C40.7631 12.6962 40.5087 12.6255 40.212 12.6255C40.0848 12.6255 39.9717 12.6396 39.8587 12.6679C39.7456 12.6962 39.6325 12.7245 39.5336 12.781C39.4206 12.8375 39.3075 12.9082 39.1945 12.993C39.0814 13.0778 38.9684 13.1767 38.8412 13.3039V10.8449C38.8412 10.8167 38.8412 10.8025 38.827 10.7742C38.8129 10.7601 38.7987 10.746 38.7705 10.7318C38.7422 10.7177 38.6998 10.7036 38.6574 10.7036C38.615 10.7036 38.5444 10.6895 38.4737 10.6895C38.4031 10.6895 38.3465 10.6895 38.29 10.7036C38.2476 10.7036 38.2052 10.7177 38.177 10.7318C38.1487 10.746 38.1346 10.7601 38.1204 10.7742C38.1063 10.7884 38.1063 10.8167 38.1063 10.8449V16.9499C38.1063 16.9781 38.1063 16.9923 38.1204 17.0206C38.1346 17.0347 38.1487 17.0488 38.177 17.063C38.2052 17.0771 38.2335 17.0771 38.2759 17.0912C38.3182 17.0912 38.3748 17.1054 38.4313 17.1054C38.502 17.1054 38.5444 17.1053 38.5868 17.0912C38.6292 17.0912 38.6574 17.0771 38.6857 17.063C38.714 17.0488 38.7281 17.0347 38.7422 17.0206C38.7564 17.0064 38.7564 16.9781 38.7564 16.9499V16.4412C38.8694 16.5683 38.9825 16.6673 39.0955 16.7662C39.2086 16.851 39.3075 16.9216 39.4206 16.9923C39.5336 17.0488 39.6325 17.0912 39.7456 17.1195C39.8586 17.1478 39.9717 17.1619 40.113 17.1619C40.3957 17.1619 40.65 17.1053 40.862 17.0064C41.0881 16.8934 41.2718 16.7521 41.4131 16.5401C41.5686 16.3281 41.6817 16.0878 41.7523 15.8052ZM41.0881 14.929C41.0881 15.1269 41.074 15.3106 41.0316 15.4943C40.9892 15.678 40.9327 15.8476 40.8479 16.0031C40.7631 16.1585 40.6501 16.2716 40.5229 16.3705C40.3815 16.4553 40.2261 16.5118 40.0423 16.5118C39.8445 16.5118 39.6467 16.4412 39.4488 16.314C39.2651 16.1868 39.0672 15.9889 38.8553 15.7346V14.0952C38.9683 13.9398 39.0814 13.8126 39.1945 13.7137C39.2934 13.6148 39.4064 13.53 39.5054 13.4734C39.6043 13.4028 39.7032 13.3604 39.788 13.3321C39.8869 13.3039 39.9858 13.2897 40.0706 13.2897C40.2685 13.2897 40.4239 13.3321 40.5653 13.431C40.6924 13.53 40.8055 13.643 40.8762 13.7985C40.961 13.9539 41.0175 14.1235 41.0457 14.3214C41.074 14.5051 41.0881 14.717 41.0881 14.929ZM35.9017 28.4815C35.9158 28.4674 35.9158 28.4392 35.9158 28.425V25.9237C35.9158 25.6269 35.8876 25.3866 35.8452 25.1747C35.7887 24.9627 35.718 24.779 35.5908 24.6235C35.4777 24.4681 35.3223 24.3409 35.1386 24.2561C34.9549 24.1572 34.7146 24.1148 34.4461 24.1148C34.2059 24.1148 33.9798 24.1713 33.7537 24.2985C33.5276 24.4115 33.2873 24.6094 33.0612 24.8638V24.3267C33.0612 24.2985 33.0612 24.2844 33.0471 24.2702C33.0329 24.2561 33.0188 24.242 32.9905 24.2279C32.9623 24.2137 32.934 24.1996 32.8916 24.1996C32.8492 24.1996 32.7927 24.1855 32.722 24.1855C32.6514 24.1855 32.5948 24.1854 32.5524 24.1996C32.51 24.1996 32.4818 24.2137 32.4535 24.2279C32.4252 24.242 32.4111 24.2561 32.397 24.2702C32.3829 24.2844 32.3829 24.3126 32.3829 24.3267V28.4391C32.3829 28.4674 32.3829 28.4815 32.397 28.4957C32.4111 28.5098 32.4252 28.5239 32.4535 28.5381C32.4818 28.5522 32.5242 28.5663 32.5666 28.5663C32.609 28.5663 32.6797 28.5805 32.7503 28.5805C32.821 28.5805 32.8916 28.5804 32.934 28.5663C32.9764 28.5663 33.0188 28.5522 33.0471 28.5381C33.0753 28.5239 33.0895 28.5098 33.1036 28.4957C33.1177 28.4815 33.1177 28.4533 33.1177 28.4391V25.5704C33.3297 25.316 33.5276 25.1182 33.7113 24.9768C33.895 24.8497 34.0928 24.779 34.2765 24.779C34.4179 24.779 34.545 24.8072 34.6581 24.8638C34.7711 24.9203 34.8559 24.991 34.9266 25.104C34.9973 25.2029 35.0538 25.3301 35.0821 25.4714C35.1245 25.6127 35.1386 25.7965 35.1386 26.0367V28.4391C35.1386 28.4674 35.1386 28.4815 35.1527 28.4957C35.1668 28.5098 35.181 28.5239 35.2093 28.5381C35.2375 28.5522 35.2799 28.5663 35.3223 28.5663C35.3647 28.5663 35.4354 28.5805 35.506 28.5805C35.5767 28.5805 35.6473 28.5804 35.6897 28.5663C35.7321 28.5663 35.7745 28.5522 35.8028 28.5381C35.8734 28.5098 35.8876 28.4957 35.9017 28.4815ZM34.644 17.0064C34.6581 16.9923 34.6581 16.964 34.6581 16.9358V10.859C34.6581 10.8308 34.6581 10.8167 34.644 10.8025C34.6299 10.7884 34.6157 10.7743 34.5874 10.7601C34.5592 10.746 34.5168 10.746 34.4744 10.7318C34.432 10.7177 34.3613 10.7177 34.2907 10.7177C34.22 10.7177 34.1635 10.7177 34.107 10.7318C34.0646 10.746 34.0221 10.746 33.9939 10.7601C33.9656 10.7743 33.9374 10.7884 33.9374 10.8025C33.9233 10.8167 33.9232 10.8449 33.9232 10.859V13.2473C33.7254 13.0495 33.5275 12.894 33.3297 12.781C33.1318 12.6821 32.9058 12.6255 32.6655 12.6255C32.3829 12.6255 32.1144 12.6821 31.9024 12.781C31.6763 12.894 31.4925 13.0495 31.3512 13.2473C31.1958 13.4452 31.0827 13.6854 31.0121 13.9681C30.9414 14.2507 30.899 14.5757 30.899 14.929C30.899 15.2258 30.9273 15.5084 30.9838 15.777C31.0404 16.0455 31.1393 16.2857 31.2806 16.4835C31.4078 16.6814 31.5915 16.8368 31.8035 16.964C32.0154 17.0771 32.2698 17.1336 32.5807 17.1336C32.8633 17.1336 33.1177 17.063 33.3438 16.9358C33.5841 16.8086 33.7961 16.6249 34.0222 16.3846V16.9216C34.0222 16.9499 34.0221 16.964 34.0363 16.9923C34.0504 17.0064 34.0646 17.0206 34.0928 17.0347C34.1211 17.0488 34.1494 17.0488 34.1918 17.063C34.2341 17.063 34.2907 17.0771 34.3472 17.0771C34.4037 17.0771 34.4603 17.0771 34.5027 17.063C34.5451 17.063 34.5733 17.0488 34.6016 17.0347C34.6157 17.0488 34.6299 17.0347 34.644 17.0064ZM33.9091 15.7063C33.796 15.8618 33.683 15.9748 33.5699 16.0879C33.4569 16.1868 33.358 16.2716 33.259 16.3422C33.1601 16.4129 33.0612 16.4553 32.9764 16.4835C32.8775 16.5118 32.7927 16.5259 32.6796 16.5259C32.4818 16.5259 32.3122 16.4835 32.185 16.3846C32.0578 16.2857 31.9448 16.1727 31.8741 16.0172C31.7893 15.8618 31.7328 15.6921 31.7045 15.4943C31.6763 15.2964 31.6621 15.0986 31.6621 14.8866C31.6621 14.6888 31.6763 14.5051 31.7187 14.3072C31.7611 14.1235 31.8176 13.9539 31.9024 13.7985C31.9872 13.643 32.1002 13.53 32.2274 13.4452C32.3687 13.3604 32.5242 13.3039 32.722 13.3039C32.934 13.3039 33.1319 13.3745 33.3156 13.5017C33.4993 13.6289 33.6971 13.8267 33.9091 14.0811V15.7063ZM30.9555 24.9768C30.899 24.779 30.8001 24.6235 30.6729 24.4964C30.5457 24.3692 30.3761 24.2702 30.1641 24.1996C29.9522 24.1289 29.7119 24.1007 29.4152 24.1007C29.2597 24.1007 29.1043 24.1148 28.9488 24.1431C28.7934 24.1713 28.652 24.2137 28.5248 24.2561C28.3977 24.2985 28.2846 24.355 28.1715 24.3974C28.0726 24.454 28.002 24.4964 27.9596 24.5388C27.9172 24.5812 27.8889 24.6235 27.8889 24.6659C27.8748 24.7083 27.8748 24.7649 27.8748 24.8497C27.8748 24.8921 27.8748 24.9344 27.8889 24.9768C27.8889 25.0192 27.903 25.0475 27.9172 25.0757C27.9313 25.104 27.9454 25.1181 27.9596 25.1323C27.9737 25.1464 28.002 25.1464 28.0302 25.1464C28.0726 25.1464 28.115 25.1181 28.1998 25.0757C28.2705 25.0333 28.3694 24.9768 28.4824 24.9344C28.5955 24.8779 28.7227 24.8355 28.864 24.7931C29.0054 24.7507 29.1749 24.7224 29.3586 24.7224C29.5282 24.7224 29.6836 24.7366 29.7967 24.779C29.9098 24.8214 30.0087 24.8779 30.0935 24.9627C30.1642 25.0475 30.2207 25.1464 30.2489 25.2595C30.2772 25.3866 30.3055 25.528 30.3055 25.6834V26.0084H29.7402C29.4152 26.0084 29.1325 26.0367 28.8781 26.0932C28.6238 26.1498 28.4118 26.2346 28.2281 26.3476C28.0585 26.4607 27.9172 26.602 27.8182 26.7716C27.7193 26.9412 27.6769 27.139 27.6769 27.3792C27.6769 27.5771 27.7052 27.7467 27.7759 27.9021C27.8465 28.0576 27.9455 28.1848 28.0585 28.2978C28.1857 28.4109 28.327 28.4815 28.5107 28.5381C28.6803 28.5946 28.8781 28.6229 29.0901 28.6229C29.3304 28.6229 29.5706 28.5663 29.7967 28.4674C30.0228 28.3544 30.2207 28.213 30.3903 28.0152V28.425C30.3903 28.4674 30.4044 28.4957 30.4185 28.5098C30.4326 28.524 30.475 28.5381 30.5174 28.5522C30.5598 28.5663 30.6305 28.5663 30.7012 28.5663C30.786 28.5663 30.8425 28.5663 30.8849 28.5522C30.9273 28.5381 30.9556 28.524 30.9838 28.5098C31.0121 28.4957 31.0262 28.4674 31.0262 28.425V25.6551C31.0403 25.4008 31.0121 25.1747 30.9555 24.9768ZM30.2913 27.4216C30.1076 27.6336 29.9239 27.7891 29.7543 27.888C29.5847 27.9869 29.401 28.0434 29.2032 28.0434C28.9629 28.0434 28.7651 27.9869 28.6379 27.8597C28.4966 27.7325 28.4401 27.563 28.4401 27.351C28.4401 27.2238 28.4683 27.1107 28.5107 27.0259C28.5531 26.927 28.6379 26.8423 28.7368 26.7857C28.8357 26.7151 28.9629 26.6585 29.1184 26.6303C29.2739 26.5879 29.4434 26.5738 29.6554 26.5738H30.3055V27.4216H30.2913ZM29.938 14.9714C29.9946 14.9149 30.0228 14.8301 30.0228 14.7171V14.5757C30.0228 14.3072 29.9946 14.0529 29.9239 13.8267C29.8533 13.5865 29.7543 13.3886 29.5989 13.2049C29.4576 13.0353 29.2597 12.894 29.0336 12.781C28.8075 12.6821 28.539 12.6255 28.2139 12.6255C27.9172 12.6255 27.6345 12.6821 27.3943 12.781C27.1541 12.8799 26.9421 13.0354 26.7725 13.2332C26.6029 13.4311 26.4757 13.6713 26.3768 13.9539C26.292 14.2366 26.2355 14.5475 26.2355 14.9008C26.2355 15.2682 26.2779 15.5932 26.3627 15.8759C26.4475 16.1585 26.5888 16.3846 26.7584 16.5683C26.9279 16.752 27.1399 16.8934 27.3943 16.9923C27.6487 17.0912 27.9455 17.1336 28.2846 17.1336C28.4825 17.1336 28.6662 17.1195 28.8357 17.0912C29.0053 17.0629 29.1608 17.0347 29.288 16.9923C29.4152 16.9499 29.5282 16.9216 29.613 16.8792C29.6978 16.8368 29.7402 16.8086 29.7685 16.7945C29.7826 16.7803 29.7967 16.7662 29.8109 16.7379C29.825 16.7238 29.825 16.6955 29.8391 16.6814C29.8391 16.6532 29.8532 16.639 29.8532 16.6107C29.8532 16.5825 29.8532 16.5542 29.8532 16.5118C29.8532 16.4553 29.8532 16.4129 29.8532 16.3705C29.8532 16.3281 29.8391 16.2998 29.8391 16.2857C29.825 16.2574 29.8108 16.2433 29.7967 16.2433C29.7826 16.2292 29.7543 16.2292 29.7402 16.2292C29.6978 16.2292 29.6554 16.2433 29.5706 16.2716C29.5 16.2998 29.401 16.3422 29.3021 16.3846C29.1891 16.427 29.0619 16.4553 28.9064 16.4977C28.751 16.526 28.5814 16.5401 28.3835 16.5401C28.1291 16.5401 27.9313 16.4977 27.7617 16.4412C27.5922 16.3705 27.4508 16.2716 27.3378 16.1444C27.2247 16.0172 27.154 15.8617 27.1117 15.678C27.0693 15.4943 27.041 15.2965 27.041 15.0562H29.7543C29.8108 15.0421 29.8815 15.0138 29.938 14.9714ZM29.2738 14.4909H27.0269C27.0269 14.3214 27.0693 14.1659 27.1117 14.0105C27.1682 13.855 27.2388 13.7278 27.3378 13.6006C27.4367 13.4876 27.5497 13.3887 27.6911 13.318C27.8324 13.2474 28.002 13.2191 28.1857 13.2191C28.5531 13.2191 28.8216 13.3321 29.0053 13.5582C29.189 13.7843 29.288 14.0952 29.2738 14.4909ZM26.4192 24.68C26.2779 24.5105 26.08 24.3692 25.8539 24.2561C25.6278 24.1572 25.3593 24.1007 25.0343 24.1007C24.7375 24.1007 24.4549 24.1572 24.2146 24.2561C23.9744 24.355 23.7624 24.5105 23.5928 24.7083C23.4232 24.9062 23.296 25.1464 23.1971 25.429C23.1123 25.7117 23.0558 26.0226 23.0558 26.3759C23.0558 26.7433 23.0982 27.0684 23.183 27.351C23.2678 27.6336 23.395 27.8597 23.5787 28.0434C23.7483 28.2272 23.9603 28.3685 24.2146 28.4674C24.469 28.5663 24.7658 28.6087 25.1049 28.6087C25.3028 28.6087 25.4865 28.5946 25.6561 28.5663C25.8256 28.5381 25.9811 28.5098 26.1083 28.4674C26.2355 28.425 26.3486 28.3967 26.4333 28.3543C26.5181 28.312 26.5605 28.2837 26.5888 28.2696C26.6029 28.2554 26.617 28.2413 26.6312 28.213C26.6453 28.1989 26.6453 28.1707 26.6595 28.1565C26.6595 28.1283 26.6736 28.1141 26.6736 28.0717C26.6736 28.0435 26.6736 28.0152 26.6736 27.9728C26.6736 27.9163 26.6736 27.8739 26.6595 27.8315C26.6595 27.7891 26.6453 27.7608 26.6453 27.7467C26.6312 27.7184 26.6171 27.7043 26.6029 27.7043C26.5888 27.6902 26.5605 27.6901 26.5464 27.6901C26.504 27.6901 26.4616 27.7043 26.3768 27.7325C26.3061 27.7608 26.2072 27.8032 26.1083 27.8456C25.9952 27.888 25.8681 27.9163 25.7126 27.9587C25.5572 27.9869 25.3876 28.001 25.1897 28.001C24.9354 28.001 24.7375 27.9586 24.5679 27.9021C24.3983 27.8456 24.257 27.7325 24.1439 27.6054C24.0309 27.4782 23.9603 27.3227 23.9179 27.139C23.8755 26.9553 23.8472 26.7575 23.8472 26.5172H26.5464C26.617 26.5172 26.6877 26.4889 26.7442 26.4465C26.8008 26.39 26.829 26.3052 26.829 26.1922V26.0508C26.829 25.7823 26.8008 25.528 26.7301 25.3018C26.6594 25.0616 26.5605 24.8496 26.4192 24.68ZM26.08 25.966H23.8331C23.8331 25.7965 23.8613 25.641 23.9179 25.4856C23.9744 25.3301 24.045 25.2029 24.1439 25.0757C24.2429 24.9627 24.3559 24.8638 24.4972 24.7931C24.6386 24.7225 24.8081 24.6942 24.9919 24.6942C25.3593 24.6942 25.6278 24.8072 25.8115 25.0333C25.9953 25.2594 26.0942 25.5704 26.08 25.966ZM25.1614 17.0064C25.1756 16.9923 25.1756 16.964 25.1756 16.9358V10.859C25.1756 10.8308 25.1756 10.8167 25.1614 10.8025C25.1473 10.7884 25.1332 10.7743 25.1049 10.7601C25.0767 10.746 25.0343 10.746 24.9919 10.7318C24.9495 10.7177 24.8788 10.7177 24.8081 10.7177C24.7375 10.7177 24.681 10.7177 24.6245 10.7318C24.5821 10.746 24.5396 10.746 24.5114 10.7601C24.4831 10.7743 24.4548 10.7884 24.4548 10.8025C24.4407 10.8167 24.4407 10.8449 24.4407 10.859V13.2473C24.2429 13.0495 24.045 12.894 23.8472 12.781C23.6493 12.6821 23.4232 12.6255 23.183 12.6255C22.9003 12.6255 22.6319 12.6821 22.4199 12.781C22.1938 12.894 22.01 13.0495 21.8687 13.2473C21.7133 13.4452 21.6002 13.6854 21.5296 13.9681C21.4589 14.2507 21.4165 14.5757 21.4165 14.929C21.4165 15.2258 21.4447 15.5084 21.5013 15.777C21.5578 16.0455 21.6567 16.2857 21.7839 16.4835C21.9111 16.6814 22.0948 16.8368 22.3068 16.964C22.5188 17.0771 22.7731 17.1336 23.084 17.1336C23.3667 17.1336 23.6211 17.063 23.8472 16.9358C24.0733 16.8086 24.2994 16.6249 24.5255 16.3846V16.9216C24.5255 16.9499 24.5255 16.964 24.5397 16.9923C24.5538 17.0064 24.5679 17.0206 24.5962 17.0347C24.6244 17.0488 24.6527 17.0488 24.6951 17.063C24.7375 17.063 24.794 17.0771 24.8505 17.0771C24.9071 17.0771 24.9636 17.0771 25.006 17.063C25.0484 17.063 25.0767 17.0488 25.1049 17.0347C25.1332 17.0488 25.1473 17.0347 25.1614 17.0064ZM24.4124 15.7063C24.2994 15.8618 24.1864 15.9748 24.0733 16.0879C23.9602 16.1868 23.8613 16.2716 23.7624 16.3422C23.6635 16.4129 23.5646 16.4553 23.4798 16.4835C23.3809 16.5118 23.296 16.5259 23.1971 16.5259C22.9993 16.5259 22.8297 16.4835 22.7025 16.3846C22.5753 16.2857 22.4623 16.1727 22.3916 16.0172C22.3068 15.8618 22.2503 15.6921 22.222 15.4943C22.1938 15.2964 22.1796 15.0986 22.1796 14.8866C22.1796 14.6888 22.1938 14.5051 22.2362 14.3072C22.2786 14.1235 22.3351 13.9539 22.4199 13.7985C22.5047 13.643 22.6177 13.53 22.7449 13.4452C22.8721 13.3604 23.0417 13.3039 23.2395 13.3039C23.4515 13.3039 23.6494 13.3745 23.8331 13.5017C24.0168 13.6289 24.2146 13.8267 24.4266 14.0811V15.7063H24.4124ZM21.8546 24.7507C21.7274 24.5529 21.5578 24.3974 21.3458 24.2702C21.1339 24.1572 20.8795 24.1007 20.5827 24.1007C20.4414 24.1007 20.3142 24.1148 20.187 24.1431C20.0598 24.1713 19.9468 24.2278 19.8196 24.2843C19.7065 24.3409 19.5793 24.4257 19.4663 24.5246C19.3532 24.6235 19.2261 24.7366 19.0989 24.8638V24.3126C19.0989 24.2844 19.0989 24.2702 19.0847 24.242C19.0706 24.2278 19.0565 24.2137 19.0282 24.1996C18.9999 24.1854 18.9717 24.1854 18.9293 24.1713C18.8869 24.1713 18.8304 24.1572 18.7738 24.1572C18.7173 24.1572 18.6608 24.1572 18.6184 24.1713C18.576 24.1713 18.5477 24.1854 18.5195 24.1996C18.4912 24.2137 18.4771 24.2278 18.4629 24.242C18.4488 24.2561 18.4488 24.2844 18.4488 24.3126V30.0502C18.4488 30.0785 18.4488 30.0926 18.4629 30.1208C18.4771 30.135 18.4912 30.1491 18.5195 30.1632C18.5477 30.1774 18.5901 30.1915 18.6325 30.1915C18.6749 30.1915 18.7456 30.2056 18.8162 30.2056C18.8869 30.2056 18.9575 30.2057 18.9999 30.1915C19.0423 30.1915 19.0847 30.1774 19.113 30.1632C19.1412 30.1491 19.1554 30.135 19.1695 30.1208C19.1837 30.1067 19.1837 30.0785 19.1837 30.0502V28.001C19.2967 28.1141 19.3956 28.1989 19.4946 28.2837C19.5935 28.3685 19.6924 28.425 19.7913 28.4815C19.8903 28.5381 19.9892 28.5663 20.0881 28.5946C20.187 28.6229 20.3001 28.637 20.4273 28.637C20.7099 28.637 20.9643 28.5805 21.1904 28.4815C21.4165 28.3685 21.6002 28.213 21.7557 28.0152C21.9111 27.8173 22.0242 27.5771 22.0948 27.2803C22.1655 26.9977 22.2079 26.6726 22.2079 26.3193C22.2079 26.0226 22.1796 25.7399 22.1231 25.4714C22.0807 25.1888 21.9818 24.9486 21.8546 24.7507ZM21.4589 26.39C21.4589 26.5879 21.4448 26.7716 21.4024 26.9553C21.36 27.139 21.3035 27.3086 21.2187 27.464C21.1339 27.6195 21.0208 27.7325 20.8936 27.8315C20.7523 27.9163 20.5968 27.9728 20.399 27.9728C20.187 27.9728 20.0033 27.9021 19.8055 27.7749C19.6218 27.6477 19.4239 27.4499 19.2119 27.1955V25.5563C19.325 25.4008 19.438 25.2877 19.5511 25.1747C19.6641 25.0757 19.763 24.991 19.862 24.9344C19.9609 24.8779 20.0598 24.8214 20.1446 24.7931C20.2435 24.7649 20.3425 24.7507 20.4273 24.7507C20.6251 24.7507 20.7805 24.7931 20.9219 24.8921C21.0491 24.9768 21.1621 25.104 21.2328 25.2595C21.3034 25.4149 21.36 25.5845 21.4024 25.7823C21.4448 25.966 21.4589 26.1781 21.4589 26.39ZM20.3001 17.0064C20.3142 16.9923 20.3142 16.964 20.3142 16.9499V14.4485C20.3142 14.1518 20.286 13.9115 20.2436 13.6996C20.187 13.4876 20.1164 13.3039 19.9892 13.1484C19.8761 12.993 19.7207 12.8658 19.537 12.781C19.3532 12.6821 19.113 12.6397 18.8445 12.6397C18.6042 12.6397 18.3781 12.6962 18.152 12.8234C17.9259 12.9364 17.6857 13.1343 17.4596 13.3887V12.8516C17.4596 12.8234 17.4596 12.8093 17.4454 12.7951C17.4313 12.781 17.4172 12.7668 17.3889 12.7527C17.3606 12.7386 17.3324 12.7245 17.29 12.7245C17.2476 12.7245 17.1911 12.7245 17.1204 12.7245C17.0498 12.7245 16.9932 12.7245 16.9508 12.7245C16.9084 12.7245 16.8802 12.7386 16.8519 12.7527C16.8236 12.7668 16.8095 12.781 16.7954 12.7951C16.7812 12.8093 16.7812 12.8375 16.7812 12.8516V16.964C16.7812 16.9923 16.7812 17.0064 16.7954 17.0206C16.8095 17.0347 16.8236 17.0488 16.8519 17.063C16.8802 17.0771 16.9226 17.0912 16.9649 17.0912C17.0073 17.0912 17.078 17.1054 17.1487 17.1054C17.2193 17.1054 17.29 17.1053 17.3324 17.0912C17.3748 17.0912 17.4172 17.0771 17.4454 17.063C17.4737 17.0488 17.4878 17.0347 17.502 17.0206C17.5161 17.0064 17.5161 16.9782 17.5161 16.964V14.0952C17.7281 13.8409 17.9259 13.6431 18.1096 13.5017C18.2933 13.3745 18.4912 13.3039 18.6749 13.3039C18.8162 13.3039 18.9434 13.3321 19.0565 13.3887C19.1695 13.4452 19.2543 13.5159 19.325 13.6289C19.3957 13.7278 19.4522 13.855 19.4804 13.9963C19.5228 14.1376 19.537 14.3214 19.537 14.5616V16.964C19.537 16.9923 19.5369 17.0064 19.5511 17.0206C19.5652 17.0347 19.5793 17.0488 19.6076 17.063C19.6359 17.0771 19.6783 17.0912 19.7207 17.0912C19.7631 17.0912 19.8337 17.1054 19.9044 17.1054C19.975 17.1054 20.0457 17.1053 20.0881 17.0912C20.1305 17.0912 20.1729 17.0771 20.2012 17.063C20.2577 17.0347 20.286 17.0206 20.3001 17.0064ZM16.8802 24.6942C16.7106 24.4963 16.4986 24.355 16.2583 24.2561C16.004 24.1572 15.7072 24.1007 15.368 24.1007C15.0147 24.1007 14.718 24.1572 14.4495 24.2702C14.181 24.3833 13.969 24.5387 13.7994 24.7507C13.6298 24.9486 13.4885 25.2029 13.4037 25.4856C13.3189 25.7682 13.2765 26.0791 13.2765 26.4041C13.2765 26.7574 13.3189 27.0683 13.4037 27.3368C13.4885 27.6054 13.6157 27.8456 13.7853 28.0293C13.9548 28.2272 14.1668 28.3685 14.4071 28.4674C14.6614 28.5663 14.9582 28.6229 15.2974 28.6229C15.6507 28.6229 15.9474 28.5663 16.216 28.4533C16.4845 28.3402 16.6964 28.1848 16.866 27.9728C17.0356 27.775 17.1769 27.5206 17.2617 27.2521C17.3465 26.9694 17.3889 26.6585 17.3889 26.3335C17.3889 25.9943 17.3465 25.6834 17.2617 25.4008C17.1769 25.1181 17.0497 24.8779 16.8802 24.6942ZM16.5975 26.3617C16.5975 26.602 16.5693 26.814 16.5269 27.0118C16.4845 27.2097 16.3997 27.3792 16.3007 27.5206C16.2018 27.6619 16.0605 27.7749 15.9051 27.8597C15.7355 27.9445 15.5517 27.9728 15.3256 27.9728C15.0854 27.9728 14.8734 27.9304 14.718 27.8456C14.5484 27.7608 14.4212 27.6478 14.3223 27.4923C14.2234 27.351 14.1527 27.1673 14.1103 26.9694C14.0679 26.7716 14.0538 26.5596 14.0538 26.3335C14.0538 26.0933 14.082 25.8813 14.1244 25.6834C14.1809 25.4856 14.2516 25.316 14.3505 25.1747C14.4495 25.0333 14.5908 24.9203 14.7462 24.8355C14.9017 24.7507 15.0995 24.7224 15.3256 24.7224C15.5659 24.7224 15.7778 24.7649 15.9333 24.8497C16.1029 24.9345 16.2301 25.0475 16.3149 25.203C16.4138 25.3584 16.4845 25.528 16.5269 25.7258C16.5834 25.9378 16.5975 26.1498 16.5975 26.3617ZM15.4104 17.0064C15.4246 16.9923 15.4246 16.964 15.4246 16.9499V12.8375C15.4246 12.8093 15.4246 12.7951 15.4104 12.781C15.3963 12.7669 15.3822 12.7527 15.3539 12.7386C15.3257 12.7245 15.2832 12.7103 15.2409 12.7103C15.1985 12.7103 15.1278 12.7103 15.0571 12.7103C14.9865 12.7103 14.9158 12.7103 14.8734 12.7103C14.831 12.7103 14.7886 12.7245 14.7604 12.7386C14.7321 12.7527 14.7038 12.7669 14.7038 12.781C14.6897 12.7951 14.6897 12.8234 14.6897 12.8375V15.7063C14.4777 15.9607 14.2799 16.1585 14.0962 16.2998C13.9125 16.427 13.7146 16.4977 13.5309 16.4977C13.3896 16.4977 13.2624 16.4694 13.1493 16.4129C13.0363 16.3564 12.9515 16.2716 12.8808 16.1726C12.8102 16.0737 12.7536 15.9465 12.7254 15.8052C12.6971 15.6639 12.6688 15.466 12.6688 15.2258V12.8375C12.6688 12.8093 12.6689 12.7951 12.6547 12.781C12.6406 12.7669 12.6265 12.7527 12.5982 12.7386C12.5699 12.7245 12.5275 12.7103 12.4851 12.7103C12.4427 12.7103 12.3721 12.7103 12.3014 12.7103C12.2308 12.7103 12.1742 12.7103 12.1177 12.7103C12.0753 12.7103 12.0329 12.7245 12.0046 12.7386C11.9764 12.7527 11.9481 12.7669 11.9481 12.781C11.934 12.7951 11.934 12.8234 11.934 12.8375V15.3247C11.934 15.6215 11.9622 15.8759 12.0046 16.0879C12.0612 16.2998 12.1319 16.4835 12.259 16.639C12.3721 16.7944 12.5275 16.9216 12.7112 17.0064C12.8949 17.0912 13.1352 17.1477 13.4037 17.1477C13.644 17.1477 13.8701 17.0912 14.0962 16.964C14.3223 16.851 14.5625 16.6531 14.7886 16.3988V16.9358C14.7886 16.964 14.7886 16.9781 14.8028 16.9923C14.8169 17.0064 14.831 17.0206 14.8593 17.0347C14.8876 17.0488 14.9158 17.063 14.9582 17.063C15.0006 17.063 15.0572 17.0771 15.1278 17.0771C15.1985 17.0771 15.2408 17.0771 15.2832 17.063C15.3256 17.063 15.3681 17.0488 15.3963 17.0347C15.3822 17.0347 15.3963 17.0206 15.4104 17.0064ZM11.8774 24.1431C11.7927 24.1713 11.7079 24.2137 11.6089 24.2702C11.5241 24.3268 11.4252 24.4115 11.3263 24.5105C11.2274 24.6094 11.1285 24.7507 11.0154 24.9062V24.3126C11.0154 24.2844 11.0154 24.2702 11.0013 24.2561C10.9871 24.242 10.973 24.2278 10.9447 24.2137C10.9165 24.1996 10.8882 24.1855 10.8458 24.1855C10.8034 24.1855 10.7469 24.1713 10.6762 24.1713C10.6056 24.1713 10.549 24.1713 10.5066 24.1855C10.4643 24.1855 10.436 24.1996 10.4078 24.2137C10.3795 24.2278 10.3654 24.242 10.3512 24.2561C10.3371 24.2702 10.3371 24.2985 10.3371 24.3126V28.425C10.3371 28.4533 10.3371 28.4674 10.3512 28.4815C10.3654 28.4957 10.3795 28.5098 10.4078 28.5239C10.436 28.5381 10.4784 28.5522 10.5208 28.5522C10.5632 28.5522 10.6339 28.5663 10.7045 28.5663C10.7752 28.5663 10.8458 28.5663 10.8882 28.5522C10.9306 28.5522 10.973 28.5381 11.0013 28.5239C11.0295 28.5098 11.0437 28.4957 11.0578 28.4815C11.0719 28.4674 11.0719 28.4392 11.0719 28.425V25.7258C11.185 25.5562 11.2698 25.4149 11.3687 25.3018C11.4535 25.1888 11.5383 25.0899 11.6231 25.0192C11.7079 24.9486 11.7785 24.892 11.8492 24.8638C11.9199 24.8355 11.9905 24.8214 12.0753 24.8214C12.1318 24.8214 12.2025 24.8214 12.259 24.8355C12.3156 24.8496 12.3579 24.8638 12.4003 24.8779C12.4427 24.892 12.4851 24.9062 12.5134 24.9203C12.5417 24.9344 12.5841 24.9344 12.5982 24.9344C12.6265 24.9344 12.6406 24.9203 12.6547 24.9203C12.6689 24.9062 12.683 24.892 12.683 24.8638C12.6971 24.8355 12.6971 24.8073 12.6971 24.7507C12.6971 24.7083 12.6971 24.6518 12.6971 24.5811C12.6971 24.5105 12.6971 24.4539 12.6971 24.4115C12.6971 24.3691 12.6971 24.3409 12.683 24.3126C12.683 24.2844 12.6688 24.2702 12.6688 24.2561C12.6688 24.242 12.6547 24.2278 12.6264 24.2137C12.6123 24.1996 12.5699 24.1854 12.5275 24.1713C12.4852 24.1572 12.4286 24.143 12.3721 24.1289C12.3155 24.1148 12.259 24.1148 12.2166 24.1007C12.1601 24.1007 12.1177 24.0865 12.0753 24.0865C12.0612 24.1007 11.9622 24.1148 11.8774 24.1431ZM10.8317 11.6363C10.8317 11.5939 10.8458 11.5374 10.8458 11.4808C10.8458 11.4243 10.8458 11.3678 10.8317 11.3254C10.8317 11.283 10.8176 11.2406 10.8035 11.2123C10.7893 11.1841 10.7752 11.17 10.7469 11.1558C10.7328 11.1417 10.7045 11.1417 10.6904 11.1417H8.03357C7.96291 11.1417 7.89227 11.1699 7.83574 11.2123C7.77921 11.2547 7.73681 11.3395 7.73681 11.4667V16.9358C7.73681 16.964 7.73682 16.9781 7.75095 16.9923C7.76508 17.0064 7.7792 17.0206 7.8216 17.0347C7.84986 17.0488 7.89225 17.0488 7.94878 17.063C8.0053 17.0771 8.06184 17.0771 8.1325 17.0771C8.21729 17.0771 8.27384 17.0771 8.33037 17.063C8.37276 17.0488 8.41514 17.0488 8.4434 17.0347C8.47167 17.0206 8.49991 17.0064 8.51405 16.9923C8.52818 16.9781 8.52819 16.9499 8.52819 16.9358V14.4768H10.5773C10.6056 14.4768 10.6197 14.4768 10.6338 14.4627C10.648 14.4486 10.6762 14.4344 10.6904 14.4062C10.7045 14.3779 10.7186 14.3496 10.7186 14.3072C10.7186 14.2648 10.7328 14.2224 10.7328 14.1518C10.7328 14.0811 10.7328 14.0387 10.7186 13.9963C10.7186 13.9539 10.7045 13.9257 10.6904 13.8974C10.6762 13.8692 10.6621 13.855 10.6338 13.8409C10.6197 13.8268 10.5915 13.8267 10.5773 13.8267H8.52819V11.82H10.6904C10.7186 11.82 10.7328 11.82 10.7469 11.8059C10.761 11.7918 10.7893 11.7776 10.8035 11.7493C10.8035 11.7211 10.8176 11.6787 10.8317 11.6363ZM8.23143 27.1814C8.01945 27.4358 7.82159 27.6336 7.63787 27.7749C7.45416 27.9021 7.25632 27.9728 7.07261 27.9728C6.93129 27.9728 6.80411 27.9445 6.69106 27.888C6.578 27.8315 6.49321 27.7467 6.42255 27.6478C6.35189 27.5488 6.29534 27.4217 6.26708 27.2803C6.23881 27.139 6.21058 26.9412 6.21058 26.7009V24.3126C6.21058 24.2844 6.21057 24.2702 6.19643 24.2561C6.1823 24.242 6.16816 24.2278 6.13989 24.2137C6.11163 24.1996 6.06925 24.1855 6.02686 24.1855C5.98446 24.1855 5.9138 24.1713 5.84314 24.1713C5.77248 24.1713 5.71594 24.1713 5.65941 24.1855C5.61702 24.1855 5.57464 24.1996 5.54638 24.2137C5.51811 24.2278 5.48984 24.242 5.48984 24.2561C5.47571 24.2702 5.47569 24.2985 5.47569 24.3126V26.7998C5.47569 27.0966 5.50398 27.351 5.54638 27.563C5.60291 27.7749 5.67355 27.9587 5.80074 28.1141C5.9138 28.2696 6.06926 28.3967 6.25297 28.4815C6.43669 28.5663 6.67692 28.6229 6.94542 28.6229C7.18567 28.6229 7.41176 28.5663 7.63787 28.4391C7.86398 28.3261 8.10426 28.1282 8.33037 27.8739V28.4109C8.33037 28.4391 8.33034 28.4533 8.34447 28.4674C8.3586 28.4816 8.37275 28.4957 8.40101 28.5098C8.42927 28.524 8.45755 28.5381 8.49994 28.5381C8.54234 28.5381 8.59886 28.5522 8.66952 28.5522C8.72605 28.5522 8.78255 28.5522 8.82495 28.5381C8.86734 28.5381 8.90976 28.524 8.93803 28.5098C8.96629 28.4957 8.98044 28.4816 8.99457 28.4674C9.0087 28.4533 9.00867 28.425 9.00867 28.4109V24.2985C9.00867 24.2702 8.99457 24.2561 8.99457 24.242C8.98044 24.2278 8.96629 24.2137 8.93803 24.1996C8.90976 24.1854 8.86734 24.1713 8.82495 24.1713C8.78255 24.1713 8.71193 24.1572 8.64127 24.1572C8.57061 24.1572 8.49994 24.1572 8.45755 24.1713C8.41515 24.1713 8.37273 24.1854 8.34447 24.1996C8.31621 24.2137 8.28797 24.2278 8.28797 24.242C8.27384 24.2561 8.27383 24.2844 8.27383 24.2985V27.1814H8.23143ZM4.30276 28.3543C4.30276 28.312 4.31686 28.2695 4.31686 28.213C4.31686 28.1565 4.31689 28.1 4.30276 28.0576C4.30276 28.0152 4.2886 27.9869 4.27447 27.9587C4.26034 27.9304 4.24624 27.9162 4.21797 27.9021C4.20384 27.888 4.17555 27.888 4.14729 27.888H1.80139V25.7682H3.77989C3.80815 25.7682 3.82227 25.7682 3.85053 25.7541C3.86466 25.7399 3.89294 25.7258 3.90707 25.6975C3.9212 25.6693 3.93532 25.641 3.93532 25.5986C3.93532 25.5563 3.94946 25.5138 3.94946 25.4573C3.94946 25.4008 3.94945 25.3442 3.93532 25.3018C3.93532 25.2595 3.9212 25.2312 3.90707 25.203C3.89294 25.1747 3.87879 25.1605 3.85053 25.1464C3.8364 25.1323 3.80815 25.1323 3.77989 25.1323H1.80139V23.281H4.10489C4.13316 23.281 4.14732 23.281 4.17558 23.2668C4.18971 23.2527 4.21797 23.2386 4.21797 23.2104C4.23211 23.1821 4.24622 23.1538 4.24622 23.1114C4.26035 23.069 4.26037 23.0266 4.26037 22.9701C4.26037 22.9136 4.26035 22.8571 4.24622 22.8147C4.23209 22.7723 4.23211 22.744 4.21797 22.7157C4.20384 22.6875 4.18971 22.6733 4.17558 22.6592C4.16145 22.6451 4.13316 22.645 4.10489 22.645H1.3068C1.23614 22.645 1.16546 22.6733 1.10894 22.7157C1.05241 22.7581 1.01 22.8429 1.01 22.9701V28.2413C1.01 28.3544 1.03828 28.4391 1.10894 28.4957C1.16546 28.5381 1.23614 28.5663 1.3068 28.5663H4.14729C4.17555 28.5663 4.18971 28.5663 4.21797 28.5522C4.23211 28.5381 4.26034 28.5239 4.27447 28.4957C4.2886 28.425 4.30276 28.3967 4.30276 28.3543ZM50.1891 22.5744C50.1184 22.6309 50.0902 22.7581 50.0902 22.9277C50.0902 23.0973 50.1184 23.2245 50.1891 23.281C50.2598 23.3375 50.3728 23.3799 50.5565 23.3799C50.7402 23.3799 50.8533 23.3517 50.9239 23.281C50.9946 23.2245 51.0229 23.0973 51.0229 22.9277C51.0229 22.7581 50.9946 22.6309 50.9239 22.5744C50.8533 22.5179 50.7402 22.4755 50.5565 22.4755C50.3728 22.4755 50.2456 22.5037 50.1891 22.5744ZM50.1891 24.242C50.175 24.2561 50.1749 24.2844 50.1749 24.2985V28.4109C50.1749 28.4391 50.175 28.4533 50.1891 28.4674C50.2032 28.4816 50.2173 28.4957 50.2456 28.5098C50.2738 28.524 50.3163 28.5381 50.3587 28.5381C50.4011 28.5381 50.4717 28.5522 50.5424 28.5522C50.613 28.5522 50.6837 28.5522 50.7261 28.5381C50.7685 28.5381 50.8109 28.524 50.8391 28.5098C50.8674 28.4957 50.8816 28.4816 50.8957 28.4674C50.9098 28.4533 50.9098 28.425 50.9098 28.4109V24.2985C50.9098 24.2702 50.9098 24.2561 50.8957 24.242C50.8816 24.2278 50.8674 24.2137 50.8391 24.1996C50.8109 24.1854 50.7685 24.1854 50.7261 24.1713C50.6837 24.1713 50.613 24.1572 50.5424 24.1572C50.4717 24.1572 50.4152 24.1572 50.3587 24.1713C50.3163 24.1854 50.2738 24.1854 50.2456 24.1996C50.2173 24.2137 50.2032 24.2278 50.1891 24.242Z" fill="#004C99"/>
<path d="M70.2281 2.04077H124V37.8793H70.2281V2.04077Z" fill="#004C99"/>
<path d="M110.688 19.4089H109.275L108.836 18.0522L108.398 19.4089H106.985L108.144 20.2427L107.72 21.5852L108.851 20.7514L109.981 21.5852L109.557 20.2427L110.688 19.4089ZM107.974 14.3638L109.133 13.53H107.72L107.282 12.1734L106.844 13.53H105.431L106.575 14.3638L106.137 15.7064L107.268 14.8725L108.398 15.7064L107.974 14.3638ZM103.692 10.0818L104.837 9.24806H103.41L102.972 7.8914L102.534 9.24806H101.106L102.251 10.0818L101.827 11.4244L102.958 10.5906L104.088 11.4244L103.692 10.0818ZM101.12 29.6122L102.265 30.4459L101.841 31.7884L102.972 30.9547L104.102 31.7884L103.664 30.4459L104.823 29.6122H103.396L102.958 28.2555L102.52 29.6122H101.12ZM97.8136 32.0004L98.9724 31.1667H97.5592L97.1211 29.81L96.683 31.1667H95.2698L96.4145 32.0004L95.9906 33.343L97.1211 32.5092L98.2517 33.343L97.8136 32.0004ZM97.8136 8.49907L98.9724 7.66529H97.5451L97.107 6.30859L96.6689 7.66529H95.2557L96.4004 8.49907L95.9764 9.84157L97.107 9.00779L98.2376 9.84157L97.8136 8.49907ZM91.9488 30.4318L93.1077 29.598H91.6945L91.2564 28.2414L90.8183 29.598H89.4051L90.5498 30.4318L90.1258 31.7743L91.2564 30.9406L92.3869 31.7743L91.9488 30.4318ZM91.9347 10.0818L93.0794 9.24806H91.6521L91.214 7.8914L90.7759 9.24806H89.3627L90.5074 10.0818L90.0834 11.4244L91.214 10.5906L92.3445 11.4244L91.9347 10.0818ZM87.6386 26.1357L88.7974 25.3019H87.3842L86.9461 23.9452L86.508 25.3019H85.0949L86.2395 26.1357L85.8156 27.4782L86.9461 26.6444L88.0767 27.4782L87.6386 26.1357ZM87.6386 14.3921L88.7833 13.5583H87.3701L86.932 12.2016L86.4939 13.5583H85.0666L86.2254 14.3921L85.7873 15.7346L86.9179 14.9008L88.0484 15.7346L87.6386 14.3921ZM85.3634 18.0664L84.9253 19.423H83.5121L84.6568 20.2568L84.2328 21.5993L85.3634 20.7656L86.4939 21.5993L86.07 20.2568L87.2146 19.423H85.8014L85.3634 18.0664ZM105.417 25.3019L106.561 26.1357L106.123 27.4782L107.254 26.6444L108.384 27.4782L107.946 26.1357L109.105 25.3019H107.692L107.254 23.9452L106.816 25.3019H105.417Z" fill="#FFED00"/>
</svg>
