<svg xmlns="http://www.w3.org/2000/svg" viewBox="0 0 114 34"><path d="M63.235-.005v33.848H114V-.005H63.235" fill="#254aa5"/><path d="M99.274 11.763l1.294-1.043-1.629-.044-.543-1.616-.543 1.616-1.629.044 1.294 1.043-.463 1.643 1.343-.971 1.342.971zm-4.219-4.192l1.294-1.042-1.629-.044-.543-1.616-.543 1.616-1.629.044 1.294 1.042-.464 1.643 1.343-.972 1.343.972zM89.373 28.83l1.294-1.042-1.63-.044-.543-1.616-.539 1.616-1.629.044 1.293 1.042-.464 1.643 1.343-.972 1.342.972zm0-22.757l1.294-1.042-1.63-.044-.543-1.616-.539 1.615-1.629.044 1.293 1.042-.464 1.643 1.343-.971 1.342.971zm-5.706 21.3l1.294-1.042-1.63-.044-.543-1.616-.543 1.616-1.629.044 1.293 1.042-.463 1.643 1.343-.971 1.342.971zm0-19.8l1.294-1.042-1.63-.044-.543-1.616-.543 1.614-1.629.044 1.293 1.042-.463 1.643 1.343-.972 1.342.972zm-2.786 3.149l-1.626-.046-.543-1.616-.543 1.616-1.629.044 1.294 1.043-.464 1.643 1.343-.971 1.342.971-.464-1.643zm-5.8 5.652l1.294 1.042-.463 1.643 1.342-.971 1.343.971-.463-1.643 1.293-1.042-1.629-.044-.543-1.616-.543 1.616zm1.46 5.839l1.294 1.042-.469 1.64 1.343-.971 1.346.971-.464-1.643 1.294-1.042-1.63-.043-.543-1.616-.543 1.616zm15.465 4.117l1.294 1.042-.464 1.643 1.343-.971 1.343.971-.467-1.645 1.294-1.042-1.629-.044-.543-1.616-.543 1.616zm5.516-3.075l-.467 1.64 1.343-.971 1.342.971-.463-1.643 1.294-1.042-1.629-.044-.543-1.616-.543 1.616-1.629.044zm3.812-4.2l-.464-1.643 1.294-1.042-1.629-.044-.543-1.616-.543 1.616-1.629.044 1.294 1.042-.464 1.643 1.343-.971 1.343.971" fill="#fff319"/><path fill="#ffffff" d="M.614 25.128h3.533v-.479H1.138V22.28h2.5v-.479h-2.5v-2.255h3.008v-.488H.614zm7.169-4.367v3.617a2.613 2.613 0 01-1.246.367c-.848 0-.975-.41-.975-1.712v-2.271h-.5v2.28c0 1.633.237 2.174 1.415 2.174a2.871 2.871 0 001.306-.409v.322h.5v-4.367zm1.772 4.367h.5v-3.275a6.011 6.011 0 011.6-.655v-.524a4.466 4.466 0 00-1.6.715v-.628h-.5zm4.364-4.454c-1.314 0-1.779.663-1.779 2.21 0 1.651.355 2.332 1.779 2.332s1.77-.68 1.77-2.332c-.001-1.547-.466-2.21-1.771-2.21zm0 4.08c-1.1 0-1.255-.533-1.255-1.87 0-1.311.28-1.748 1.255-1.748s1.255.437 1.255 1.748c-.001 1.337-.163 1.87-1.256 1.87zm2.865 2.34h.5v-1.991a5.248 5.248 0 001.017.113c1.314 0 1.83-.645 1.83-2.332 0-1.521-.449-2.21-1.508-2.21a2.905 2.905 0 00-1.34.418v-.331h-.5zm1.787-5.949c.661 0 1.034.463 1.034 1.739 0 1.345-.339 1.87-1.323 1.87a6.1 6.1 0 01-1-.1v-3.116a2.93 2.93 0 011.289-.393zm4.152 3.6c-.89 0-1.179-.551-1.179-1.582h2.881l.017-.418c0-1.469-.575-2.07-1.669-2.07-1.034 0-1.745.6-1.745 2.288 0 1.459.381 2.245 1.643 2.254a16.059 16.059 0 001.619-.122l-.017-.428s-.932.079-1.551.079zm-1.179-2.018c0-1.163.458-1.6 1.23-1.6.8 0 1.161.42 1.161 1.6zm6.856-.665c0-.926-.389-1.388-1.313-1.388a10.414 10.414 0 00-1.644.183l.026.419a15.95 15.95 0 011.6-.131c.543 0 .831.253.831.917v.411l-1.441.148c-.856.087-1.245.472-1.245 1.276 0 .874.414 1.318 1.16 1.318a4.493 4.493 0 001.594-.357 1.171 1.171 0 00.957.349l.026-.418c-.28-.035-.526-.122-.551-.384zm-.5.822v1.581a4.675 4.675 0 01-1.458.306c-.466 0-.7-.323-.7-.883a.744.744 0 01.78-.856zm2.313 2.244v-3.616a3.046 3.046 0 011.306-.367c.848 0 .983.428.983 1.712v2.271h.507v-2.3c0-1.6-.254-2.157-1.415-2.157a3.273 3.273 0 00-1.382.41v-.322h-.5v4.367zm6.466-1.781v-4.29h-.516v4.29c0 1.354.736 1.868 1.983 1.868 1.313 0 2.05-.514 2.05-1.868v-4.29h-.525v4.29c0 1.013-.551 1.38-1.525 1.38-.916.001-1.468-.375-1.468-1.379zm5.356 1.781v-3.616a3.046 3.046 0 011.305-.367c.848 0 .984.428.984 1.712v2.271h.507v-2.3c0-1.6-.254-2.157-1.415-2.157a3.274 3.274 0 00-1.382.41v-.322h-.5v4.367zm4.018 0h.5v-4.366h-.498zm0-5.46h.5v-.654h-.498zm3.372 1.006c-1.314 0-1.779.663-1.779 2.21 0 1.651.355 2.332 1.779 2.332s1.771-.68 1.771-2.332c-.001-1.547-.466-2.21-1.772-2.21zm0 4.08c-1.1 0-1.255-.533-1.255-1.87 0-1.311.28-1.748 1.255-1.748s1.255.437 1.255 1.748c-.002 1.337-.162 1.87-1.256 1.87zm3.363.375v-3.617a3.046 3.046 0 011.306-.367c.848 0 .983.428.983 1.712v2.271h.507v-2.3c0-1.6-.254-2.157-1.415-2.157a3.277 3.277 0 00-1.382.41v-.322h-.5v4.367h.5M6.495 15.265h.524v-2.594h2.508v-.476H7.02V9.683h2.949v-.488H6.495zm6.86-4.37v3.62a2.613 2.613 0 01-1.246.367c-.848 0-.975-.41-.975-1.712v-2.275h-.5v2.28c0 1.633.237 2.174 1.415 2.174a2.868 2.868 0 001.306-.409v.322h.5v-4.367zm2.27 4.367v-3.614a3.046 3.046 0 011.306-.367c.848 0 .983.428.983 1.712v2.272h.507v-2.3c0-1.6-.254-2.157-1.414-2.157a3.277 3.277 0 00-1.382.41v-.323h-.5v4.37zm7.186-6.306h-.507v1.966a7.705 7.705 0 00-1.068-.114c-1.331 0-1.779.794-1.779 2.323 0 1.974.779 2.218 1.491 2.218a3.012 3.012 0 001.356-.409v.322h.507zm-1.813 5.923c-.492 0-1.017-.2-1.017-1.747 0-1.2.263-1.861 1.272-1.861a8.61 8.61 0 011.051.1V14.5a3.094 3.094 0 01-1.306.375zm4.584 0c-.89 0-1.178-.551-1.178-1.582h2.881l.017-.418c0-1.468-.575-2.07-1.669-2.07-1.034 0-1.745.6-1.745 2.289 0 1.459.381 2.244 1.644 2.253a16.054 16.054 0 001.618-.122l-.017-.428s-.932.079-1.551.079zm-1.178-2.018c0-1.162.458-1.6 1.229-1.6.8 0 1.161.42 1.161 1.6zm7.11-3.905h-.507v1.966a7.715 7.715 0 00-1.069-.114c-1.331 0-1.779.794-1.779 2.323 0 1.974.779 2.218 1.491 2.218a3.012 3.012 0 001.357-.409v.322h.507zm-1.809 5.926c-.492 0-1.018-.2-1.018-1.747 0-1.2.263-1.861 1.272-1.861a8.617 8.617 0 011.052.1v3.129a3.094 3.094 0 01-1.306.375zm6.762-4.071a3.489 3.489 0 00-1.322.322V8.959h-.507v6.306s.821.087 1.355.087c1.559 0 1.982-.645 1.982-2.341 0-1.547-.355-2.2-1.508-2.2zm-.475 4.071c-.255 0-.848-.052-.848-.052v-3.252a3.426 3.426 0 011.28-.3c.814 0 1.026.542 1.026 1.73 0 1.293-.2 1.87-1.458 1.87zm2.586-3.987l1.245 4.367h.584l-.568 1.966h.508l1.83-6.333h-.517l-1.135 3.914h-.305l-1.125-3.914zm8.464.462v-.462h-1.415V9.526h-.507v1.369h-.627v.462h.627v2.42c0 1.258.3 1.581 1.143 1.581a7.7 7.7 0 00.856-.087l-.034-.445s-.543.061-.78.061c-.61 0-.678-.279-.678-1.372V11.36zm1.3 3.9v-3.679a3.578 3.578 0 011.305-.3c.84 0 .975.428.975 1.712v2.275h.507v-2.3c0-1.6-.254-2.157-1.414-2.157a3.749 3.749 0 00-1.373.34V8.959h-.5v6.306zm5.525-.383c-.89 0-1.178-.551-1.178-1.582h2.881l.017-.418c0-1.468-.575-2.07-1.669-2.07-1.034 0-1.745.6-1.745 2.289 0 1.459.381 2.244 1.644 2.253a16.042 16.042 0 001.618-.122l-.017-.428s-.932.079-1.551.079zm-1.178-2.018c0-1.162.458-1.6 1.229-1.6.8 0 1.161.42 1.161 1.6h-2.393"/></svg>