<svg width="131" height="40" viewBox="0 0 131 40" fill="none" xmlns="http://www.w3.org/2000/svg">
<path d="M19.971 35.5299C25.7319 35.5299 30.7246 32.37 33.413 27.7457L31.4928 26.6667C29.1884 30.6744 24.887 33.2948 19.971 33.2948C12.5971 33.2948 6.68261 27.2833 6.68261 19.9615C6.68261 12.5627 12.5971 6.62814 19.971 6.62814C24.887 6.62814 29.1884 9.32563 31.4928 13.2563L33.413 12.1773C30.7246 7.55299 25.7319 4.39307 19.971 4.39307C11.4449 4.39307 4.45508 11.3295 4.45508 19.9615C4.45508 28.5935 11.3681 35.5299 19.971 35.5299Z" fill="#002F66"/>
<path d="M130.887 18.2659H129.735L126.97 23.6609H126.816L123.82 18.2659H122.668L126.125 24.4316H126.432C126.125 24.9711 125.894 25.2794 125.587 25.5106C125.357 25.6647 124.896 25.7418 124.204 25.7418C124.051 25.7418 123.897 25.7418 123.743 25.7418V26.6667C123.897 26.6667 124.051 26.6667 124.281 26.6667C124.819 26.6667 125.203 26.6667 125.433 26.5896C125.741 26.5125 125.971 26.4355 126.201 26.2813C126.432 26.1272 126.662 25.896 126.893 25.5877C127.123 25.2794 127.354 24.817 127.738 24.1233L130.887 18.2659ZM121.823 25.1252C121.9 24.6628 121.977 23.8921 121.977 22.8902V18.2659H120.978V19.0366H120.901C120.748 18.8054 120.517 18.5742 120.287 18.42C120.057 18.343 119.826 18.2659 119.519 18.1888C119.212 18.1118 118.751 18.1118 118.059 18.1118C117.214 18.1118 116.6 18.1118 116.216 18.1888C115.755 18.2659 115.448 18.343 115.141 18.42C114.296 18.8054 113.912 19.7302 113.912 21.0405C113.912 21.657 113.988 22.1965 114.142 22.5819C114.296 22.9672 114.526 23.3526 114.91 23.5838C115.141 23.738 115.525 23.8921 115.986 23.9692C116.446 24.0462 117.061 24.0462 117.906 24.0462C118.904 24.0462 119.596 23.9692 119.98 23.8921C120.364 23.815 120.671 23.5838 120.901 23.2755H120.978C120.978 23.8921 120.901 24.3545 120.901 24.5857C120.825 24.817 120.748 25.0482 120.594 25.2023C120.441 25.4335 120.133 25.5877 119.749 25.6647C119.365 25.7418 118.674 25.8189 117.752 25.8189C116.677 25.8189 115.986 25.7418 115.601 25.5106C115.448 25.4335 115.371 25.3565 115.294 25.2023C115.217 25.0482 115.217 24.894 115.141 24.6628H114.142C114.142 24.9711 114.142 25.2023 114.219 25.2794C114.219 25.4335 114.296 25.5877 114.449 25.7418C114.68 26.0501 115.064 26.2813 115.525 26.4355C115.986 26.5896 116.754 26.6667 117.829 26.6667C118.828 26.6667 119.519 26.6667 119.98 26.5896C120.441 26.5125 120.825 26.3584 121.055 26.2042C121.439 25.973 121.67 25.5877 121.823 25.1252ZM120.978 21.1175C120.978 21.657 120.901 22.0424 120.825 22.3507C120.748 22.659 120.517 22.8902 120.287 23.0443C119.98 23.2755 119.212 23.3526 117.983 23.3526C116.83 23.3526 116.139 23.2755 115.832 23.1214C115.294 22.8902 114.987 22.1965 114.987 21.1946C114.987 20.1927 115.217 19.5761 115.678 19.3449C116.062 19.1137 116.907 19.0366 118.059 19.0366C119.135 19.0366 119.826 19.1137 120.133 19.2678C120.441 19.422 120.594 19.5761 120.748 19.8844C120.901 20.1927 120.978 20.578 120.978 21.1175ZM111.914 21.0405H112.913V20.4239C112.913 19.6532 112.683 19.0366 112.299 18.6513C112.068 18.4971 111.838 18.343 111.53 18.2659C111.223 18.1888 110.762 18.1888 110.148 18.1888C109.533 18.1888 109.072 18.1888 108.765 18.2659C108.458 18.2659 108.228 18.343 107.997 18.4971C107.69 18.6513 107.459 18.8825 107.306 19.1908H107.229V18.343H106.23V24.5087H107.229V21.58C107.229 20.501 107.383 19.8073 107.69 19.499C107.997 19.1908 108.765 19.0366 109.917 19.0366C110.686 19.0366 111.223 19.1137 111.454 19.3449C111.607 19.422 111.684 19.5761 111.684 19.8073C111.761 19.9615 111.761 20.2698 111.761 20.578V21.0405H111.914ZM98.1652 21.58H105.001C105.001 20.8863 104.925 20.3468 104.848 19.9615C104.771 19.5761 104.617 19.2678 104.387 19.0366C104.08 18.7283 103.696 18.4971 103.235 18.42C102.774 18.343 102.006 18.2659 100.93 18.2659C99.8551 18.2659 99.0101 18.343 98.5493 18.4971C98.0884 18.6513 97.7043 18.9595 97.4739 19.422C97.2435 19.8844 97.0899 20.578 97.0899 21.5029C97.0899 22.8131 97.3971 23.6609 98.0116 24.1233C98.3188 24.2775 98.7029 24.4316 99.2406 24.5087C99.7783 24.5857 100.546 24.6628 101.622 24.6628C102.851 24.6628 103.772 24.5087 104.233 24.2004C104.771 23.8921 105.001 23.4297 105.001 22.659H104.003C104.003 22.9672 103.926 23.1985 103.772 23.3526C103.619 23.5067 103.388 23.6609 103.081 23.738C102.774 23.815 102.236 23.815 101.545 23.815C100.623 23.815 99.9319 23.815 99.5478 23.738C99.1638 23.6609 98.8565 23.5067 98.6261 23.3526C98.3188 22.8902 98.1652 22.3507 98.1652 21.58ZM98.1652 20.7322C98.242 20.1156 98.3957 19.6532 98.7029 19.422C98.8565 19.2678 99.1638 19.1908 99.471 19.1137C99.7783 19.0366 100.316 19.0366 100.93 19.0366C101.622 19.0366 102.236 19.0366 102.543 19.1137C102.928 19.1908 103.235 19.2678 103.388 19.422C103.696 19.6532 103.849 20.1156 103.849 20.6551H98.1652V20.7322ZM94.7855 24.4316H95.7841V20.9634C95.7841 20.4239 95.7841 19.9615 95.7072 19.6532C95.6304 19.3449 95.4768 19.1137 95.3232 18.8825C95.0928 18.6513 94.7087 18.42 94.3246 18.343C93.8638 18.2659 93.2493 18.1888 92.3275 18.1888C91.329 18.1888 90.5609 18.2659 90.1768 18.42C89.7159 18.5742 89.4087 18.8054 89.2551 19.1908H89.1783V18.2659H88.1797V24.4316H89.1783V21.58C89.1783 20.9634 89.1783 20.578 89.2551 20.3468C89.3319 20.1156 89.4087 19.8844 89.5623 19.7303C89.7928 19.499 90.1 19.2678 90.4841 19.1908C90.8681 19.1137 91.4826 19.0366 92.2507 19.0366C92.942 19.0366 93.4029 19.1137 93.787 19.1908C94.0942 19.2678 94.4015 19.422 94.5551 19.5761C94.7087 19.7302 94.7855 19.9615 94.8623 20.1927C94.9391 20.4239 94.9391 20.8092 94.9391 21.3487V24.4316H94.7855ZM78.3478 24.4316H87.0275V23.3526H79.5V20.2697H86.6435V19.1908H79.5V16.4933H87.0275V15.4143H78.3478V24.4316ZM76.5043 23.2755C76.7348 22.8131 76.8116 22.1965 76.8116 21.4258C76.8116 20.6551 76.7348 20.1156 76.5812 19.6532C76.4275 19.1908 76.1203 18.8825 75.7362 18.6513C75.5058 18.4971 75.1217 18.42 74.6609 18.343C74.2 18.2659 73.5087 18.2659 72.5101 18.2659C71.4348 18.2659 70.6667 18.343 70.2058 18.4971C69.7449 18.6513 69.3609 18.9595 69.1304 19.422C68.9 19.8844 68.7464 20.501 68.7464 21.4258C68.7464 22.1965 68.8232 22.8131 68.9768 23.2755C69.1304 23.738 69.4377 24.0462 69.8217 24.2775C70.129 24.4316 70.4362 24.5087 70.8971 24.5857C71.358 24.6628 71.9725 24.6628 72.8942 24.6628C73.8159 24.6628 74.5072 24.5857 74.8913 24.5087C75.2754 24.4316 75.6594 24.2775 75.8899 24.1233C76.1971 23.815 76.3507 23.5838 76.5043 23.2755ZM75.813 21.3487C75.813 21.8882 75.7362 22.3507 75.6594 22.659C75.5826 22.9672 75.429 23.1985 75.1986 23.3526C74.9681 23.5067 74.7377 23.5838 74.4304 23.6609C74.1232 23.738 73.5855 23.738 72.8942 23.738C71.8188 23.738 71.1275 23.6609 70.7435 23.5067C70.4362 23.3526 70.2058 23.1214 70.0522 22.8131C69.8985 22.5048 69.8217 22.0424 69.8217 21.4258C69.8217 20.8863 69.8986 20.4239 69.9754 20.1156C70.0522 19.8073 70.2826 19.5761 70.513 19.422C70.7435 19.2678 70.9739 19.1908 71.2812 19.1908C71.5884 19.1137 72.1261 19.1137 72.7406 19.1137C73.7391 19.1137 74.4304 19.1908 74.8145 19.2678C75.1986 19.3449 75.5058 19.5761 75.6594 19.9615C75.7362 20.1927 75.813 20.6551 75.813 21.3487ZM66.442 24.4316H67.4406V20.9634C67.4406 20.4239 67.4406 19.9615 67.3638 19.6532C67.287 19.3449 67.1333 19.1137 66.9797 18.8825C66.7493 18.6513 66.3652 18.42 65.9812 18.343C65.5203 18.2659 64.9058 18.1888 63.9841 18.1888C62.9855 18.1888 62.2174 18.2659 61.8333 18.42C61.3725 18.5742 61.0652 18.8054 60.9116 19.1908H60.8348V18.2659H59.8362V24.4316H60.8348V21.58C60.8348 20.9634 60.8348 20.578 60.9116 20.3468C60.9884 20.1156 61.0652 19.8844 61.2188 19.7303C61.4493 19.499 61.7565 19.2678 62.1406 19.1908C62.5246 19.1137 63.1391 19.0366 63.9072 19.0366C64.5985 19.0366 65.0594 19.1137 65.4435 19.1908C65.7507 19.2678 66.058 19.422 66.2116 19.5761C66.3652 19.7302 66.442 19.9615 66.5188 20.1927C66.5956 20.4239 66.5956 20.8092 66.5956 21.3487V24.4316H66.442ZM57.3783 24.4316H58.3768V20.9634C58.3768 20.4239 58.3768 19.9615 58.3 19.6532C58.2232 19.3449 58.0696 19.1137 57.9159 18.8825C57.6855 18.6513 57.3014 18.42 56.9174 18.343C56.4565 18.2659 55.842 18.1888 54.9203 18.1888C53.9217 18.1888 53.1536 18.2659 52.7696 18.42C52.3087 18.5742 52.0014 18.8054 51.8478 19.1908H51.771V18.2659H50.6957V24.4316H51.6942V21.58C51.6942 20.9634 51.6942 20.578 51.771 20.3468C51.8478 20.1156 51.9246 19.8844 52.0783 19.7303C52.3087 19.499 52.6159 19.2678 53 19.1908C53.3841 19.1137 53.9986 19.0366 54.7667 19.0366C55.458 19.0366 55.9188 19.1137 56.3029 19.1908C56.6101 19.2678 56.9174 19.422 57.071 19.5761C57.2246 19.7302 57.3014 19.9615 57.3783 20.1927C57.4551 20.4239 57.4551 20.8092 57.4551 21.3487V24.4316H57.3783ZM47.9304 24.4316H49.0826V15.5684H47.9304V24.4316ZM25.5014 22.1965V16.6474H29.8797V15.5684H25.5014V13.3333H24.3493V15.5684H22.6594V16.6474H24.3493V22.1965C24.3493 23.5067 25.4246 24.4316 26.5768 24.4316H29.8797V23.3526H26.5768C25.9623 23.3526 25.5014 22.8131 25.5014 22.1965ZM22.1986 15.5684H21.0464V24.4316H22.1986V15.5684ZM21.0464 14.4123H22.1986V13.2563H21.0464V14.4123ZM39.8652 20.0385C39.8652 8.94027 30.9551 0 19.8942 0C16.2841 0 12.8275 0.924856 9.9087 2.6975L11.0609 4.62428C13.6725 3.08285 16.6681 2.23507 19.8942 2.23507C29.7261 2.23507 37.6377 10.1734 37.6377 20.0385C37.6377 29.8266 29.7261 37.7649 19.971 37.7649C10.1391 37.7649 2.22754 29.8266 2.22754 20.0385H0C0 31.0597 8.91014 40 19.971 40C30.9551 40 39.8652 31.0597 39.8652 20.0385ZM11.2913 21.4258C11.2913 20.9634 11.2913 20.501 11.2913 20.0385H19.971C19.971 19.0366 19.8942 18.343 19.8174 17.8035C19.7406 17.341 19.5101 16.8786 19.2029 16.5703C18.8188 16.185 18.358 15.7996 17.8203 15.7225C17.2826 15.5684 16.2841 15.4913 14.9783 15.4913C13.6725 15.4913 12.7507 15.5684 12.1362 15.7225C11.5217 15.8767 11.0609 16.185 10.7536 16.5703C10.4464 16.9557 10.2159 17.341 10.1391 17.8035C10.0623 18.2659 9.98551 19.0366 9.98551 20.0385C9.98551 20.9634 10.0623 21.7341 10.2159 22.1965C10.2928 22.659 10.5232 23.1214 10.8304 23.4297C11.1377 23.815 11.5986 24.2004 12.213 24.2775C12.8275 24.4316 13.7493 24.5087 15.0551 24.5087C16.3609 24.5087 17.2826 24.4316 17.8971 24.2775C18.5116 24.1233 18.9725 23.815 19.2797 23.4297C19.5101 23.1214 19.6638 22.8131 19.8174 22.5048H18.5116C18.4348 22.5819 18.358 22.736 18.2043 22.8131C17.9739 23.0443 17.5899 23.1985 17.129 23.2755C16.6681 23.3526 15.9768 23.3526 15.1319 23.3526C14.2101 23.3526 13.5188 23.3526 13.1348 23.2755C12.6739 23.1985 12.2899 23.0443 12.0594 22.8131C11.5217 22.5819 11.3681 22.0424 11.2913 21.4258ZM11.2913 18.8825C11.2913 18.0347 11.5217 17.4952 11.9058 17.1869C12.1362 16.9557 12.5203 16.8015 12.9812 16.7245C13.442 16.6474 14.1333 16.5703 14.9783 16.5703C15.8232 16.5703 16.5145 16.5703 16.9754 16.7245C17.4362 16.8015 17.8203 16.9557 18.0507 17.1869C18.4348 17.4952 18.6652 18.0347 18.6652 18.8825H11.2913Z" fill="#002F66"/>
</svg>
