<svg width="208" height="64" viewBox="0 0 208 64" fill="none" xmlns="http://www.w3.org/2000/svg">
<path d="M31.7097 56.8477C40.8568 56.8477 48.7841 51.7919 53.0527 44.393L50.0039 42.6666C46.345 49.0789 39.5153 53.2716 31.7097 53.2716C20.0015 53.2716 10.6106 43.6532 10.6106 31.9383C10.6106 20.1002 20.0015 10.605 31.7097 10.605C39.5153 10.605 46.345 14.921 50.0039 21.21L53.0527 19.4836C48.7841 12.0847 40.8568 7.02887 31.7097 7.02887C18.1721 7.02887 7.07373 18.1271 7.07373 31.9383C7.07373 45.7495 18.0501 56.8477 31.7097 56.8477Z" fill="#96C247"/>
<path d="M207.821 29.2254H205.991L201.601 37.8574H201.357L196.6 29.2254H194.771L200.26 39.0906H200.747C200.26 39.9538 199.893 40.447 199.405 40.817C199.04 41.0635 198.308 41.1869 197.209 41.1869C196.966 41.1869 196.722 41.1869 196.477 41.1869V42.6667C196.722 42.6667 196.966 42.6667 197.332 42.6667C198.186 42.6667 198.796 42.6667 199.161 42.5434C199.65 42.42 200.015 42.2968 200.38 42.0501C200.747 41.8035 201.112 41.4336 201.479 40.9403C201.844 40.447 202.211 39.7072 202.821 38.5973L207.821 29.2254ZM193.429 40.2003C193.551 39.4605 193.673 38.2274 193.673 36.6243V29.2254H192.087V30.4586H191.965C191.722 30.0886 191.355 29.7187 190.99 29.472C190.625 29.3488 190.258 29.2254 189.771 29.1021C189.283 28.9789 188.551 28.9789 187.452 28.9789C186.111 28.9789 185.136 28.9789 184.526 29.1021C183.794 29.2254 183.307 29.3488 182.819 29.472C181.478 30.0886 180.868 31.5683 180.868 33.6648C180.868 34.6512 180.989 35.5144 181.233 36.131C181.478 36.7475 181.843 37.3642 182.453 37.7341C182.819 37.9808 183.429 38.2274 184.161 38.3507C184.891 38.4739 185.868 38.4739 187.21 38.4739C188.794 38.4739 189.893 38.3507 190.503 38.2274C191.112 38.104 191.6 37.7341 191.965 37.2408H192.087C192.087 38.2274 191.965 38.9672 191.965 39.3371C191.844 39.7072 191.722 40.0771 191.478 40.3237C191.235 40.6936 190.746 40.9403 190.136 41.0635C189.526 41.1869 188.429 41.3102 186.965 41.3102C185.258 41.3102 184.161 41.1869 183.55 40.817C183.307 40.6936 183.184 40.5704 183.062 40.3237C182.94 40.0771 182.94 39.8304 182.819 39.4605H181.233C181.233 39.9538 181.233 40.3237 181.355 40.447C181.355 40.6936 181.478 40.9403 181.721 41.1869C182.087 41.6802 182.697 42.0501 183.429 42.2968C184.161 42.5434 185.38 42.6667 187.087 42.6667C188.673 42.6667 189.771 42.6667 190.503 42.5434C191.235 42.42 191.844 42.1734 192.209 41.9267C192.819 41.5568 193.186 40.9403 193.429 40.2003ZM192.087 33.788C192.087 34.6512 191.965 35.2678 191.844 35.7611C191.722 36.2544 191.355 36.6243 190.99 36.8709C190.503 37.2408 189.283 37.3642 187.332 37.3642C185.501 37.3642 184.404 37.2408 183.916 36.9942C183.062 36.6243 182.575 35.5144 182.575 33.9114C182.575 32.3083 182.94 31.3218 183.672 30.9518C184.282 30.5819 185.623 30.4586 187.452 30.4586C189.161 30.4586 190.258 30.5819 190.746 30.8285C191.235 31.0752 191.478 31.3218 191.722 31.815C191.965 32.3083 192.087 32.9248 192.087 33.788ZM177.696 33.6648H179.282V32.6782C179.282 31.4451 178.917 30.4586 178.307 29.8421C177.94 29.5954 177.575 29.3488 177.086 29.2254C176.598 29.1021 175.866 29.1021 174.891 29.1021C173.915 29.1021 173.183 29.1021 172.696 29.2254C172.208 29.2254 171.843 29.3488 171.476 29.5954C170.989 29.8421 170.622 30.212 170.379 30.7053H170.257V29.3488H168.671V39.2139H170.257V34.528C170.257 32.8016 170.501 31.6917 170.989 31.1984C171.476 30.7053 172.696 30.4586 174.525 30.4586C175.746 30.4586 176.598 30.5819 176.965 30.9518C177.208 31.0752 177.33 31.3218 177.33 31.6917C177.453 31.9384 177.453 32.4317 177.453 32.9248V33.6648H177.696ZM155.865 34.528H166.719C166.719 33.4181 166.598 32.5549 166.476 31.9384C166.354 31.3218 166.109 30.8285 165.744 30.4586C165.257 29.9653 164.647 29.5954 163.915 29.472C163.183 29.3488 161.964 29.2254 160.255 29.2254C158.549 29.2254 157.207 29.3488 156.475 29.5954C155.743 29.8421 155.134 30.3352 154.768 31.0752C154.402 31.815 154.158 32.9248 154.158 34.4046C154.158 36.501 154.646 37.8574 155.621 38.5973C156.109 38.844 156.719 39.0906 157.573 39.2139C158.427 39.3371 159.646 39.4605 161.354 39.4605C163.305 39.4605 164.768 39.2139 165.5 38.7206C166.354 38.2274 166.719 37.4875 166.719 36.2544H165.135C165.135 36.7475 165.012 37.1176 164.768 37.3642C164.525 37.6107 164.158 37.8574 163.671 37.9808C163.183 38.104 162.329 38.104 161.232 38.104C159.768 38.104 158.671 38.104 158.061 37.9808C157.451 37.8574 156.963 37.6107 156.597 37.3642C156.109 36.6243 155.865 35.7611 155.865 34.528ZM155.865 33.1715C155.987 32.185 156.231 31.4451 156.719 31.0752C156.963 30.8285 157.451 30.7053 157.939 30.5819C158.427 30.4586 159.28 30.4586 160.255 30.4586C161.354 30.4586 162.329 30.4586 162.816 30.5819C163.428 30.7053 163.915 30.8285 164.158 31.0752C164.647 31.4451 164.89 32.185 164.89 33.0482H155.865V33.1715ZM150.499 39.0906H152.085V33.5414C152.085 32.6782 152.085 31.9384 151.963 31.4451C151.841 30.9518 151.597 30.5819 151.353 30.212C150.987 29.8421 150.377 29.472 149.767 29.3488C149.036 29.2254 148.06 29.1021 146.596 29.1021C145.011 29.1021 143.791 29.2254 143.181 29.472C142.45 29.7187 141.962 30.0886 141.718 30.7053H141.596V29.2254H140.011V39.0906H141.596V34.528C141.596 33.5414 141.596 32.9248 141.718 32.5549C141.84 32.185 141.962 31.815 142.206 31.5685C142.572 31.1984 143.06 30.8285 143.669 30.7053C144.279 30.5819 145.255 30.4586 146.474 30.4586C147.572 30.4586 148.304 30.5819 148.914 30.7053C149.401 30.8285 149.889 31.0752 150.133 31.3218C150.377 31.5683 150.499 31.9384 150.621 32.3083C150.743 32.6782 150.743 33.2947 150.743 34.1579V39.0906H150.499ZM124.4 39.0906H138.181V37.3642H126.229V32.4315H137.571V30.7053H126.229V26.3893H138.181V24.6629H124.4V39.0906ZM121.472 37.2408C121.838 36.501 121.96 35.5144 121.96 34.2813C121.96 33.0482 121.838 32.185 121.595 31.4451C121.351 30.7053 120.863 30.212 120.253 29.8421C119.887 29.5954 119.277 29.472 118.546 29.3488C117.814 29.2254 116.716 29.2254 115.131 29.2254C113.423 29.2254 112.204 29.3488 111.472 29.5954C110.74 29.8421 110.13 30.3352 109.764 31.0752C109.398 31.815 109.155 32.8016 109.155 34.2813C109.155 35.5144 109.277 36.501 109.52 37.2408C109.764 37.9808 110.252 38.4739 110.862 38.844C111.35 39.0906 111.838 39.2139 112.569 39.3371C113.301 39.4605 114.277 39.4605 115.74 39.4605C117.204 39.4605 118.302 39.3371 118.911 39.2139C119.521 39.0906 120.131 38.844 120.497 38.5973C120.985 38.104 121.229 37.7341 121.472 37.2408ZM120.375 34.1579C120.375 35.0211 120.253 35.7611 120.131 36.2544C120.009 36.7475 119.765 37.1176 119.399 37.3642C119.033 37.6107 118.667 37.7341 118.18 37.8574C117.692 37.9808 116.838 37.9808 115.74 37.9808C114.033 37.9808 112.935 37.8574 112.326 37.6107C111.838 37.3642 111.472 36.9942 111.228 36.501C110.984 36.0077 110.862 35.2678 110.862 34.2813C110.862 33.4181 110.984 32.6782 111.106 32.185C111.228 31.6917 111.594 31.3218 111.96 31.0752C112.326 30.8285 112.691 30.7053 113.179 30.7053C113.667 30.5819 114.521 30.5819 115.497 30.5819C117.082 30.5819 118.18 30.7053 118.789 30.8285C119.399 30.9518 119.887 31.3218 120.131 31.9384C120.253 32.3083 120.375 33.0482 120.375 34.1579ZM105.496 39.0906H107.081V33.5414C107.081 32.6782 107.081 31.9384 106.959 31.4451C106.837 30.9518 106.593 30.5819 106.349 30.212C105.984 29.8421 105.374 29.472 104.764 29.3488C104.032 29.2254 103.057 29.1021 101.593 29.1021C100.008 29.1021 98.7879 29.2254 98.1781 29.472C97.4464 29.7187 96.9585 30.0886 96.7146 30.7053H96.5927V29.2254H95.0071V39.0906H96.5927V34.528C96.5927 33.5414 96.5927 32.9248 96.7146 32.5549C96.8365 32.185 96.9585 31.815 97.2024 31.5685C97.5684 31.1984 98.0561 30.8285 98.666 30.7053C99.2757 30.5819 100.251 30.4586 101.471 30.4586C102.569 30.4586 103.3 30.5819 103.91 30.7053C104.398 30.8285 104.886 31.0752 105.13 31.3218C105.374 31.5683 105.496 31.9384 105.618 32.3083C105.74 32.6782 105.74 33.2947 105.74 34.1579V39.0906H105.496ZM91.1045 39.0906H92.6899V33.5414C92.6899 32.6782 92.6899 31.9384 92.5679 31.4451C92.446 30.9518 92.2021 30.5819 91.9581 30.212C91.5922 29.8421 90.9824 29.472 90.3727 29.3488C89.6409 29.2254 88.6652 29.1021 87.2017 29.1021C85.6161 29.1021 84.3966 29.2254 83.7868 29.472C83.055 29.7187 82.5671 30.0886 82.3232 30.7053H82.2013V29.2254H80.4939V39.0906H82.0793V34.528C82.0793 33.5414 82.0793 32.9248 82.2013 32.5549C82.3232 32.185 82.4452 31.815 82.6892 31.5685C83.055 31.1984 83.5428 30.8285 84.1527 30.7053C84.7625 30.5819 85.7382 30.4586 86.9578 30.4586C88.0555 30.4586 88.7871 30.5819 89.397 30.7053C89.8847 30.8285 90.3727 31.0752 90.6166 31.3218C90.8604 31.5683 90.9824 31.9384 91.1045 32.3083C91.2264 32.6782 91.2264 33.2947 91.2264 34.1579V39.0906H91.1045ZM76.1032 39.0906H77.9327V24.9094H76.1032V39.0906ZM40.4908 35.5144V26.6358H47.4426V24.9094H40.4908V21.3333H38.6615V24.9094H35.9783V26.6358H38.6615V35.5144C38.6615 37.6107 40.3688 39.0906 42.1983 39.0906H47.4426V37.3642H42.1983C41.2226 37.3642 40.4908 36.501 40.4908 35.5144ZM35.2466 24.9094H33.4172V39.0906H35.2466V24.9094ZM33.4172 23.0597H35.2466V21.2101H33.4172V23.0597ZM63.2974 32.0616C63.2974 14.3044 49.1501 0 31.5877 0C25.8557 0 20.3673 1.47977 15.7329 4.316L17.5623 7.39885C21.709 4.93256 26.4654 3.57611 31.5877 3.57611C47.1987 3.57611 59.7606 16.2774 59.7606 32.0616C59.7606 47.7226 47.1987 60.4238 31.7097 60.4238C16.0987 60.4238 3.53686 47.7226 3.53686 32.0616H0C0 49.6955 14.1474 64 31.7097 64C49.1501 64 63.2974 49.6955 63.2974 32.0616ZM17.9282 34.2813C17.9282 33.5414 17.9282 32.8016 17.9282 32.0616H31.7097C31.7097 30.4586 31.5877 29.3488 31.4658 28.4856C31.3439 27.7456 30.9779 27.0058 30.4901 26.5125C29.8802 25.896 29.1486 25.2794 28.2948 25.156C27.4411 24.9094 25.8557 24.7861 23.7823 24.7861C21.709 24.7861 20.2454 24.9094 19.2697 25.156C18.294 25.4027 17.5623 25.896 17.0744 26.5125C16.5867 27.1291 16.2207 27.7456 16.0987 28.4856C15.9768 29.2254 15.8549 30.4586 15.8549 32.0616C15.8549 33.5414 15.9768 34.7746 16.2207 35.5144C16.3428 36.2544 16.7086 36.9942 17.1964 37.4875C17.6843 38.104 18.4161 38.7206 19.3916 38.844C20.3673 39.0906 21.831 39.2139 23.9043 39.2139C25.9776 39.2139 27.4411 39.0906 28.4168 38.844C29.3925 38.5973 30.1243 38.104 30.612 37.4875C30.9779 36.9942 31.2219 36.501 31.4658 36.0077H29.3925C29.2705 36.131 29.1486 36.3776 28.9045 36.501C28.5387 36.8709 27.929 37.1176 27.1972 37.2408C26.4654 37.3642 25.3677 37.3642 24.0262 37.3642C22.5626 37.3642 21.465 37.3642 20.8553 37.2408C20.1234 37.1176 19.5137 36.8709 19.1477 36.501C18.294 36.131 18.0501 35.2678 17.9282 34.2813ZM17.9282 30.212C17.9282 28.8555 18.294 27.9923 18.9039 27.499C19.2697 27.1291 19.8796 26.8824 20.6114 26.7592C21.343 26.6358 22.4407 26.5125 23.7823 26.5125C25.1239 26.5125 26.2215 26.5125 26.9533 26.7592C27.685 26.8824 28.2948 27.1291 28.6607 27.499C29.2705 27.9923 29.6363 28.8555 29.6363 30.212H17.9282Z" fill="#004494"/>
</svg>
