<svg width="131" height="40" fill="none" xmlns="http://www.w3.org/2000/svg"><path d="M19.971 35.53c5.76 0 10.754-3.16 13.442-7.784l-1.92-1.08c-2.305 4.008-6.606 6.629-11.522 6.629-7.374 0-13.288-6.012-13.288-13.334 0-7.398 5.914-13.333 13.288-13.333 4.916 0 9.217 2.698 11.522 6.628l1.92-1.079c-2.688-4.624-7.681-7.784-13.442-7.784-8.526 0-15.516 6.936-15.516 15.569 0 8.631 6.913 15.568 15.516 15.568z" fill="#fff"/><path d="M130.887 18.266h-1.152l-2.765 5.395h-.154l-2.996-5.395h-1.152l3.457 6.166h.307c-.307.54-.538.847-.845 1.079-.23.154-.691.23-1.383.23h-.461v.926h.538c.538 0 .922 0 1.152-.077.308-.078.538-.154.768-.309.231-.154.461-.385.692-.693.23-.309.461-.771.845-1.465l3.149-5.857zm-9.064 6.86c.077-.463.154-1.234.154-2.236v-4.624h-.999v.77h-.077a2.338 2.338 0 00-.614-.616 9.66 9.66 0 00-.768-.231c-.307-.077-.768-.077-1.46-.077-.845 0-1.459 0-1.843.077-.461.077-.768.154-1.075.231-.845.385-1.229 1.31-1.229 2.62 0 .617.076 1.157.23 1.542.154.385.384.77.768 1.002.231.154.615.308 1.076.385.46.077 1.075.077 1.92.077.998 0 1.69-.077 2.074-.154.384-.077.691-.308.921-.616h.077c0 .616-.077 1.079-.077 1.31-.076.231-.153.462-.307.616-.153.231-.461.386-.845.463-.384.077-1.075.154-1.997.154-1.075 0-1.766-.077-2.151-.308a.603.603 0 01-.307-.309c-.077-.154-.077-.308-.153-.54h-.999c0 .31 0 .54.077.617 0 .154.077.309.23.463.231.308.615.54 1.076.694.461.154 1.229.23 2.304.23.999 0 1.69 0 2.151-.076.461-.078.845-.232 1.075-.386.384-.231.615-.616.768-1.079zm-.845-4.009c0 .54-.077.925-.153 1.234-.077.308-.308.54-.538.693-.307.232-1.075.309-2.304.309-1.153 0-1.844-.078-2.151-.232-.538-.23-.845-.924-.845-1.926 0-1.002.23-1.619.691-1.85.384-.231 1.229-.308 2.381-.308 1.076 0 1.767.077 2.074.23.308.155.461.31.615.617.153.309.23.694.23 1.233zm-9.064-.076h.999v-.617c0-.77-.23-1.387-.614-1.773-.231-.154-.461-.308-.769-.385-.307-.077-.768-.077-1.382-.077-.615 0-1.076 0-1.383.077-.307 0-.537.077-.768.231a1.508 1.508 0 00-.691.694h-.077v-.848h-.999v6.166h.999V21.58c0-1.079.154-1.773.461-2.081.307-.308 1.075-.462 2.227-.462.769 0 1.306.077 1.537.308.153.077.23.231.23.462.077.155.077.463.077.771v.463h.153zm-13.749.539h6.836c0-.694-.076-1.233-.153-1.618-.077-.386-.231-.694-.461-.925a2.11 2.11 0 00-1.152-.617c-.461-.077-1.229-.154-2.305-.154-1.075 0-1.92.077-2.38.231-.462.154-.846.462-1.076.925-.23.462-.384 1.156-.384 2.08 0 1.311.307 2.159.922 2.621.307.154.69.309 1.229.386.537.077 1.305.154 2.381.154 1.229 0 2.15-.154 2.611-.463.538-.308.768-.77.768-1.541h-.998c0 .308-.077.54-.231.694a1.482 1.482 0 01-.691.385c-.307.077-.845.077-1.536.077-.922 0-1.613 0-1.997-.077a2.56 2.56 0 01-.922-.385c-.307-.463-.46-1.002-.46-1.773zm0-.848c.077-.616.23-1.079.538-1.31.153-.154.46-.231.768-.308.307-.077.845-.077 1.459-.077.692 0 1.306 0 1.613.077.385.077.692.154.845.308.308.231.461.694.461 1.233h-5.684v.077zm-3.38 3.7h1v-3.469c0-.54 0-1.002-.078-1.31-.077-.308-.23-.54-.384-.77a2.093 2.093 0 00-.998-.54 11.582 11.582 0 00-1.998-.154c-.998 0-1.766.077-2.15.231-.461.154-.768.385-.922.77h-.077v-.924h-.998v6.166h.998V21.58c0-.617 0-1.002.077-1.233.077-.231.154-.463.307-.617.23-.231.538-.462.922-.54a9.293 9.293 0 011.767-.153c.691 0 1.152.077 1.536.154.307.077.614.231.768.385.154.154.23.386.307.617.077.23.077.616.077 1.156v3.083h-.153zm-16.437 0h8.68v-1.08H79.5V20.27h7.144v-1.08H79.5v-2.697h7.528v-1.079h-8.68v9.018zm-1.844-1.156c.23-.463.308-1.08.308-1.85s-.077-1.31-.23-1.773c-.154-.462-.462-.77-.846-1.002-.23-.154-.614-.231-1.075-.308-.461-.077-1.152-.077-2.15-.077-1.076 0-1.844.077-2.305.231-.461.154-.845.462-1.076.925-.23.462-.384 1.079-.384 2.004 0 .77.077 1.387.23 1.85.154.462.462.77.846 1.002.307.154.614.23 1.075.308.461.077 1.075.077 1.997.077.922 0 1.613-.077 1.997-.154.384-.077.768-.232.999-.386.307-.308.46-.54.614-.848zm-.691-1.927c0 .54-.077 1.002-.154 1.31-.076.308-.23.54-.46.694-.23.154-.461.23-.769.308-.307.077-.845.077-1.536.077-1.075 0-1.767-.077-2.15-.231a1.51 1.51 0 01-.692-.694c-.154-.308-.23-.77-.23-1.387 0-.54.077-1.002.153-1.31.077-.309.308-.54.538-.694.23-.154.46-.231.768-.231.307-.077.845-.077 1.46-.077.998 0 1.69.077 2.073.154.385.077.692.308.845.694.077.23.154.693.154 1.387zm-9.371 3.083h.999v-3.469c0-.54 0-1.002-.077-1.31-.077-.308-.23-.54-.384-.77a2.093 2.093 0 00-.999-.54 11.583 11.583 0 00-1.997-.154c-.998 0-1.767.077-2.15.231-.462.154-.769.385-.922.77h-.077v-.924h-.999v6.166h.999V21.58c0-.617 0-1.002.077-1.233.076-.231.153-.463.307-.617.23-.231.538-.462.922-.54a9.293 9.293 0 011.766-.153c.692 0 1.152.077 1.537.154.307.077.614.231.768.385.153.154.23.386.307.617.077.23.077.616.077 1.156v3.083h-.154zm-9.064 0h.999v-3.469c0-.54 0-1.002-.077-1.31-.077-.308-.23-.54-.384-.77a2.093 2.093 0 00-.999-.54 11.583 11.583 0 00-1.997-.154c-.998 0-1.766.077-2.15.231-.461.154-.769.385-.922.77h-.077v-.924h-1.075v6.166h.998V21.58c0-.617 0-1.002.077-1.233.077-.231.154-.463.307-.617.23-.231.538-.462.922-.54a9.295 9.295 0 011.767-.153c.691 0 1.152.077 1.536.154.307.077.614.231.768.385.154.154.23.386.307.617.077.23.077.616.077 1.156v3.083h-.077zm-9.448 0h1.153v-8.864H47.93v8.864zm-22.429-2.235v-5.55h4.379v-1.079H25.5v-2.235H24.35v2.235h-1.69v1.08h1.69v5.549c0 1.31 1.076 2.235 2.228 2.235h3.303v-1.08h-3.303c-.615 0-1.076-.539-1.076-1.155zM22.2 15.568h-1.153v8.864H22.2v-8.864zm-1.153-1.156H22.2v-1.156h-1.153v1.156zm18.82 5.626C39.865 8.94 30.955 0 19.893 0c-3.61 0-7.066.925-9.985 2.697l1.152 1.927c2.611-1.541 5.607-2.389 8.833-2.389 9.832 0 17.744 7.938 17.744 17.803 0 9.789-7.912 17.727-17.667 17.727-9.832 0-17.743-7.938-17.743-17.727H0C0 31.06 8.91 40 19.971 40c10.984 0 19.894-8.94 19.894-19.962zM11.29 21.426v-1.387h8.68c0-1.002-.077-1.696-.154-2.236a2.352 2.352 0 00-.614-1.233c-.384-.385-.845-.77-1.383-.848-.537-.154-1.536-.23-2.842-.23s-2.227.076-2.842.23c-.614.155-1.075.463-1.382.848-.308.386-.538.771-.615 1.233-.077.463-.153 1.234-.153 2.235 0 .925.076 1.696.23 2.159.077.462.307.924.614 1.233.308.385.769.77 1.383.848.615.154 1.536.23 2.842.23s2.228-.076 2.842-.23c.615-.155 1.076-.463 1.383-.848.23-.309.384-.617.537-.925h-1.305c-.077.077-.154.231-.308.308-.23.231-.614.386-1.075.463-.46.077-1.152.077-1.997.077-.922 0-1.613 0-1.997-.078-.461-.076-.845-.23-1.076-.462-.537-.231-.69-.77-.768-1.387zm0-2.543c0-.848.23-1.388.615-1.696.23-.231.614-.386 1.075-.463.461-.077 1.152-.154 1.997-.154.845 0 1.537 0 1.997.154.461.078.845.232 1.076.463.384.308.614.848.614 1.695h-7.374z" fill="#fff"/></svg>