<?xml version="1.0" standalone="no"?>
<!DOCTYPE svg PUBLIC "-//W3C//DTD SVG 1.1//EN" "http://www.w3.org/Graphics/SVG/1.1/DTD/svg11.dtd" >
<svg xmlns="http://www.w3.org/2000/svg">
<metadata>Generated by IcoMoon</metadata>
<defs>
<font id="icomoon" horiz-adv-x="1024">
<font-face units-per-em="1024" ascent="960" descent="-64" />
<missing-glyph horiz-adv-x="1024" />
<glyph unicode="&#x20;" horiz-adv-x="512" d="" />
<glyph unicode="&#xe900;" d="M865.668 398.541h-361.728c-16.734 0-30.315 13.581-30.315 30.315s13.581 30.315 30.315 30.315h361.728c16.734 0 30.315-13.581 30.315-30.315s-13.581-30.315-30.315-30.315z" />
<glyph unicode="&#xe901;" d="M503.936 196.399c-5.662 0-11.238 1.574-16.171 4.646l-320.781 202.146c-8.812 5.577-14.188 15.241-14.188 25.668s5.376 20.087 14.188 25.668l320.781 202.144c9.34 5.861 21.141 6.225 30.801 0.849 9.702-5.335 15.684-15.481 15.684-26.516v-404.291c0-11.034-5.982-21.18-15.684-26.517-4.565-2.547-9.621-3.797-14.63-3.797z" />
<glyph unicode="&#xe902;" d="M483.874 72.999v361.728c0 16.734 13.581 30.315 30.315 30.315s30.315-13.581 30.315-30.315v-361.728c0-16.734-13.581-30.315-30.315-30.315s-30.315 13.581-30.315 30.315z" />
<glyph unicode="&#xe903;" d="M281.731 434.735c0 5.658 1.577 11.238 4.649 16.171l202.145 320.78c5.577 8.812 15.241 14.188 25.668 14.188s20.087-5.376 25.668-14.188l202.146-320.78c5.858-9.34 6.225-21.141 0.849-30.801-5.338-9.702-15.484-15.684-26.517-15.684h-404.292c-11.035 0-21.181 5.982-26.516 15.684-2.547 4.565-3.8 9.617-3.8 14.63z" />
<glyph unicode="&#xe904;" d="M540.126 780.336v-361.728c0-16.734-13.581-30.315-30.315-30.315s-30.315 13.581-30.315 30.315v361.728c0 16.734 13.581 30.316 30.315 30.316s30.315-13.581 30.315-30.316z" />
<glyph unicode="&#xe905;" d="M742.268 418.599c0-5.658-1.574-11.238-4.646-16.171l-202.146-320.781c-5.577-8.811-15.241-14.187-25.668-14.187s-20.087 5.376-25.668 14.187l-202.144 320.781c-5.861 9.34-6.225 21.141-0.849 30.801 5.335 9.702 15.481 15.684 26.516 15.684h404.291c11.034 0 21.18-5.982 26.517-15.684 2.547-4.565 3.797-9.617 3.797-14.63z" />
<glyph unicode="&#xe906;" d="M158.331 454.793h361.728c16.734 0 30.315-13.581 30.315-30.315s-13.581-30.315-30.315-30.315h-361.728c-16.734 0-30.316 13.581-30.316 30.315s13.581 30.315 30.316 30.315z" />
<glyph unicode="&#xe907;" d="M520.064 656.936c5.662 0 11.238-1.577 16.171-4.649l320.781-202.145c8.811-5.577 14.187-15.241 14.187-25.668s-5.376-20.087-14.187-25.668l-320.781-202.146c-9.34-5.858-21.141-6.225-30.801-0.849-9.702 5.338-15.684 15.484-15.684 26.517v404.292c0 11.035 5.982 21.181 15.684 26.516 4.565 2.547 9.621 3.8 14.63 3.8z" />
<glyph unicode="&#xe908;" glyph-name="chevron-up" d="M384 349.867c-8.533 0-17.067 4.267-21.333 8.533-12.8 12.8-12.8 34.133 0 46.933l145.067 149.333c12.8 12.8 34.133 12.8 46.933 0l149.333-149.333c12.8-12.8 12.8-34.133 0-46.933s-34.133-12.8-46.933 0l-123.733 128-123.733-128c-8.533-4.267-17.067-8.533-25.6-8.533z" />
<glyph unicode="&#xe909;" glyph-name="chevron-down" d="M533.333 290.134c-8.533 0-17.067 4.267-21.333 8.533l-149.333 149.333c-12.8 12.8-12.8 34.133 0 46.933s34.133 12.8 46.933 0l123.733-128 123.733 128c12.8 12.8 34.133 12.8 46.933 0s12.8-34.133 0-46.933l-149.333-149.333c-4.267-8.533-12.8-8.533-21.333-8.533z" />
<glyph unicode="&#xe90a;" glyph-name="chevron-left" d="M597.333 226.134c-8.533 0-17.067 4.267-21.333 8.533l-149.333 149.333c-4.267 4.267-8.533 12.8-8.533 21.333s4.267 17.067 8.533 21.333l149.333 149.333c12.8 12.8 34.133 12.8 46.933 0s12.8-34.133 0-46.933l-128-123.733 128-123.733c12.8-12.8 12.8-34.133 0-46.933-8.533-4.267-17.067-8.533-25.6-8.533z" />
<glyph unicode="&#xe90b;" glyph-name="chevron-right" d="M490.667 226.134c-8.533 0-17.067 4.267-21.333 8.533-12.8 12.8-12.8 34.133 0 46.933l128 123.733-128 123.733c-12.8 12.8-12.8 34.133 0 46.933s34.133 12.8 46.933 0l149.333-149.333c4.267-4.267 8.533-12.8 8.533-21.333s-4.267-17.067-8.533-21.333l-153.6-149.333c-4.267-4.267-12.8-8.533-21.333-8.533z" />
<glyph unicode="&#xe90c;" glyph-name="linkedin" d="M896 42.667h-170.667v288c0 45.167-50.684 82.953-95.851 82.953s-74.816-37.786-74.816-82.953v-288h-170.666v512h170.666v-85.333c28.258 45.714 100.54 75.21 150.4 75.21 105.451 0 190.933-87.097 190.933-192.543v-309.333zM298.667 42.667h-170.667v512h170.667v-512zM213.334 810.667c47.128 0 85.333-38.205 85.333-85.333s-38.205-85.333-85.333-85.333c-47.128 0-85.333 38.205-85.333 85.333s38.205 85.333 85.333 85.333z" />
<glyph unicode="&#xe90d;" glyph-name="twitter" d="M958.259 682.139c-32.836-14.564-68.13-24.407-105.165-28.833 37.798 22.662 66.837 58.546 80.508 101.306-35.383-20.986-74.569-36.224-116.279-44.434-33.399 35.587-80.986 57.822-133.653 57.822-101.124 0-183.117-81.983-183.117-183.106 0-14.351 1.621-28.327 4.745-41.73-152.184 7.637-287.11 80.536-377.421 191.321-15.763-27.044-24.793-58.498-24.793-92.057 0-63.529 32.326-119.575 81.46-152.414-30.013 0.956-58.252 9.19-82.937 22.905-0.017-0.765-0.017-1.529-0.017-2.301 0-88.721 63.119-162.726 146.885-179.55-15.364-4.186-31.541-6.426-48.241-6.426-11.799 0-23.27 1.152-34.452 3.285 23.302-72.742 90.926-125.687 171.054-127.159-62.668-49.118-141.622-78.391-227.414-78.391-14.78 0-29.356 0.87-43.68 2.564 81.035-51.955 177.286-82.274 280.692-82.274 336.806 0 520.99 279.019 520.99 520.995 0 7.938-0.179 15.835-0.533 23.69 35.78 25.817 66.825 58.066 91.371 94.787z" />
<glyph unicode="&#xe90e;" glyph-name="calendar" horiz-adv-x="922" d="M921.6 605.867c0 148.48-92.16 245.76-235.52 256v35.84c0 20.48-15.36 40.96-40.96 40.96-20.48 0-40.96-15.36-40.96-40.96v-35.84h-296.96v35.84c0 25.6-15.36 40.96-35.84 40.96-25.6 0-40.96-15.36-40.96-40.96v-35.84c-138.24-15.36-230.4-112.64-230.4-261.12v-424.96c0-158.72 102.4-261.12 266.24-261.12h394.24c163.84 0 261.12 97.28 261.12 261.12v430.080zM250.88 129.707c-25.6 0-40.96 20.48-40.96 40.96s20.48 40.96 40.96 40.96c25.6 0 40.96-20.48 40.96-40.96s-15.36-40.96-40.96-40.96zM209.92 349.867c0 25.6 20.48 40.96 40.96 46.080 20.48 0 40.96-15.36 40.96-40.96s-15.36-40.96-40.96-46.080c-20.48 0-40.96 20.48-40.96 40.96zM460.8 129.707c-25.6 0-40.96 20.48-40.96 40.96s20.48 40.96 40.96 40.96 40.96-20.48 40.96-40.96-15.36-40.96-40.96-40.96zM419.84 354.987c0 25.6 20.48 40.96 40.96 46.080 20.48 0 40.96-15.36 40.96-40.96s-15.36-40.96-40.96-46.080c-20.48 0-40.96 15.36-40.96 40.96zM670.72 129.707c-25.6 0-40.96 20.48-40.96 40.96s20.48 40.96 40.96 40.96c25.6 0 40.96-20.48 40.96-40.96s-20.48-40.96-40.96-40.96zM624.64 354.987v0c0 25.6 20.48 40.96 40.96 46.080 20.48 0 40.96-20.48 40.96-40.96 0-25.6-15.36-40.96-40.96-46.080-20.48 0-40.96 15.36-40.96 40.96zM844.8 590.507h-762.88v15.36c0 112.64 56.32 168.96 153.6 179.2v-40.96c0-20.48 15.36-40.96 40.96-40.96 15.36 0 30.72 15.36 30.72 40.96v40.96h302.080v-40.96c0-20.48 15.36-40.96 40.96-40.96 20.48 0 40.96 15.36 40.96 40.96v40.96c97.28-10.24 153.6-66.56 158.72-174.080v-20.48z" />
<glyph unicode="&#xe90f;" glyph-name="youtube" horiz-adv-x="1434" d="M1405.822 788.275c-15.701 58.573-61.781 104.79-120.286 120.559-106.906 29.355-534.596 29.832-534.596 29.832s-427.623 0.478-534.597-27.58c-57.344-15.633-104.721-62.874-120.559-121.378-28.194-106.906-28.468-328.636-28.468-328.636s-0.273-222.822 27.717-328.635c15.701-58.505 61.781-104.721 120.354-120.491 107.998-29.355 534.529-29.833 534.529-29.833s427.691-0.478 534.596 27.511c58.436 15.701 104.721 61.85 120.627 120.354 28.262 106.837 28.467 328.499 28.467 328.499s1.365 222.891-27.785 329.796zM614.133 255.659l0.341 409.599 355.465-205.141-355.807-204.458z" />
<glyph unicode="&#xe910;" glyph-name="facebook" horiz-adv-x="1075" d="M522.296 938.567c-282.724 0-511.946-229.222-511.946-511.951 0-255.488 187.187-467.251 431.975-505.805v357.786h-130.048v148.019h130.048v112.796c0 128.41 76.439 199.219 193.329 199.219 56.013 0 114.688-9.984 114.688-9.984v-125.901h-64.717c-63.488 0-83.354-39.526-83.354-80.026v-96h141.875l-22.682-148.022h-119.194v-357.786c244.787 38.349 431.974 250.163 431.974 505.702 0 282.729-229.222 511.951-511.949 511.951z" />
<glyph unicode="&#xe911;" glyph-name="instagram" d="M506.562 702.77c-137.647 0-249.155-111.562-249.155-249.155 0-137.647 111.508-249.209 249.155-249.209 137.539 0 249.155 111.562 249.155 249.209 0 137.593-111.616 249.155-249.155 249.155zM506.562 291.715c-89.411 0-161.9 72.488-161.9 161.845 0 89.411 72.488 161.846 161.9 161.846s161.792-72.435 161.792-161.846c0-89.357-72.381-161.845-161.792-161.845zM765.634 653.833c32.089 0 58.099 26.011 58.099 58.099s-26.010 58.099-58.099 58.099c-32.089 0-58.099-26.012-58.099-58.099s26.010-58.099 58.099-58.099zM966.5 771c-25.277 65.159-76.746 116.682-141.905 141.851-37.672 14.174-77.501 21.773-117.814 22.636-51.901 2.264-68.339 2.91-199.949 2.91s-148.48 0-199.949-2.91c-40.205-0.808-80.034-8.408-117.706-22.636-65.213-25.169-116.682-76.692-141.905-141.851-14.174-37.726-21.773-77.501-22.582-117.814-2.317-51.847-3.018-68.285-3.018-199.949 0-131.611 0-148.372 3.018-199.949 0.808-40.313 8.408-80.088 22.582-117.868 25.277-65.105 76.746-116.628 141.959-141.851 37.511-14.659 77.339-22.959 117.76-24.253 51.901-2.264 68.339-2.964 199.949-2.964s148.48 0 199.949 2.964c40.259 0.808 80.088 8.461 117.814 22.582 65.159 25.277 116.628 76.746 141.905 141.905 14.174 37.726 21.773 77.501 22.582 117.814 2.317 51.847 3.018 68.285 3.018 199.949s0 148.372-3.018 199.949c-0.701 40.852-8.246 81.327-22.69 119.485zM900.856 257.276c-0.377-31.043-5.982-61.817-16.761-90.974-16.438-42.415-49.907-75.938-92.268-92.214-28.834-10.725-59.23-16.33-90.004-16.761-51.2-2.371-65.644-2.964-196.931-2.964-131.395 0-144.815 0-196.985 2.964-30.666 0.377-61.171 6.036-89.95 16.761-42.523 16.222-76.207 49.745-92.645 92.214-10.563 28.78-16.276 59.23-16.761 89.95-2.317 51.2-2.856 65.644-2.856 196.931 0 131.341 0 144.762 2.856 196.986 0.377 31.043 5.982 61.763 16.761 90.92 16.438 42.523 50.122 75.992 92.645 92.268 28.78 10.671 59.284 16.33 89.95 16.761 51.254 2.317 65.644 2.964 196.985 2.964s144.815 0 196.931-2.964c30.774-0.377 61.171-6.036 90.004-16.761 42.361-16.33 75.83-49.853 92.268-92.268 10.563-28.78 16.276-59.23 16.761-89.95 2.317-51.254 2.91-65.644 2.91-196.985 0-131.288 0-145.408-2.317-196.931h-0.593v0.054z" />
<glyph unicode="&#xe912;" glyph-name="location" horiz-adv-x="922" d="M25.6 512.798c0 235.513 196.807 425.869 434.865 425.869 238.728 0 435.535-190.356 435.535-425.869 0-118.679-43.162-228.856-114.202-322.245-78.372-103.009-174.966-192.763-283.697-263.209-24.885-16.282-47.343-17.51-74.654 0-109.348 70.446-205.945 160.2-283.645 263.209-71.092 93.389-114.202 203.566-114.202 322.245zM317.145 499.537c0-78.897 64.38-140.951 143.32-140.951 78.989 0 143.992 62.054 143.992 140.951 0 78.282-65.004 143.356-143.992 143.356-78.94 0-143.32-65.074-143.32-143.356z" />
<glyph unicode="&#xe913;" glyph-name="star" horiz-adv-x="1075" d="M815.048 307.878c-13.261-12.851-19.354-31.437-16.333-49.664l45.517-251.904c3.84-21.35-5.171-42.957-23.040-55.296-17.51-12.8-40.806-14.336-59.904-4.096l-226.765 118.272c-7.885 4.198-16.64 6.451-25.601 6.707h-13.875c-4.813-0.717-9.523-2.253-13.824-4.608l-226.816-118.835c-11.213-5.632-23.91-7.629-36.352-5.632-30.31 5.734-50.534 34.611-45.568 65.075l45.568 251.904c3.021 18.381-3.072 37.069-16.333 50.125l-184.883 179.199c-15.462 15.002-20.838 37.53-13.773 57.856 6.861 20.275 24.371 35.072 45.517 38.4l254.464 36.915c19.354 1.997 36.352 13.773 45.056 31.181l112.128 229.888c2.662 5.12 6.093 9.83 10.24 13.824l4.608 3.584c2.406 2.662 5.171 4.864 8.243 6.656l5.581 2.048 8.704 3.584h21.556c19.251-1.997 36.198-13.517 45.056-30.72l113.613-228.864c8.192-16.742 24.115-28.365 42.496-31.181l254.464-36.915c21.504-3.072 39.475-17.92 46.592-38.4 6.707-20.531 0.922-43.059-14.848-57.856l-191.488-181.247z" />
<glyph unicode="&#xe914;" glyph-name="download" d="M623.189 852.826h5.547c8.713 0 17.050-3.552 23.083-9.837l216.149-225.109c5.722-5.96 8.917-13.901 8.917-22.163v-392.106c0-106.453-86.37-197.845-191.147-197.845h-340.821c-110.215 0-195.584 87.014-195.584 197.845v458.112c0 105.010 89.459 191.104 195.584 191.104h266.948c1.839 0.328 3.729 0.499 5.662 0.499s3.823-0.172 5.662-0.499zM585.527 788.86l-240.61-0.034c-71.316 0-131.584-58.001-131.584-127.104v-458.112c0-75.755 56.992-133.845 131.584-133.845h340.821c68.595 0 127.147 61.956 127.147 133.845l-0.017 351.77-37.393-0.127c-14.229 0.017-30.413 0.047-48.405 0.088-75.533 0.16-137.156 59.329-141.321 133.828l-0.222 8.039v91.652zM777.839 619.348l-128.311 133.627v-55.767c0-42.947 34.743-77.776 77.683-77.867l50.628 0.007zM496.653 567.859c-17.673 0-32-14.327-32-32v-203.012l-66.426 66.765-3.582 3.106c-12.506 9.323-30.286 8.333-41.673-3.004-12.525-12.467-12.571-32.73-0.103-45.252l121.359-121.878c0.951-0.939 1.967-1.818 3.034-2.628l0.29-0.252c12.54-9.344 30.37-8.311 41.745 3.093 0.004 0.004 0.009 0.013 0.013 0.017l121.131 121.643 3.093 3.593c9.267 12.548 8.196 30.323-3.187 41.66-12.523 12.471-32.785 12.429-45.252-0.094l-66.441-66.675v202.918l-0.29 4.342c-2.121 15.619-15.509 27.658-31.71 27.658z" />
</font>
</defs>
</svg>
